<?xml version="1.0" encoding="UTF-8"?>
<!DOCTYPE svg PUBLIC "-//W3C//DTD SVG 1.1//EN" "http://www.w3.org/Graphics/SVG/1.1/DTD/svg11.dtd">
<!-- Creator: CorelDRAW 2019 (64 Bit) -->
<svg xmlns="http://www.w3.org/2000/svg" xml:space="preserve" width="9.7703mm" height="13.4004mm" version="1.1" style="shape-rendering:geometricPrecision; text-rendering:geometricPrecision; image-rendering:optimizeQuality; fill-rule:evenodd; clip-rule:evenodd"
viewBox="0 0 35.23 48.32"
 xmlns:xlink="http://www.w3.org/1999/xlink">
 <defs>
  <style type="text/css">
   <![CDATA[
    .fil0 {fill:#A5A5A5;fill-rule:nonzero}
   ]]>
  </style>
 </defs>
 <g id="Camada_x0020_1">
  <metadata id="CorelCorpID_0Corel-Layer"/>
  <g id="_1543071587728">
   <polygon class="fil0" points="0.67,39.17 2.56,39.17 2.56,48.18 0.67,48.18 "/>
   <path class="fil0" d="M4.15 41.55l1.75 0 0.07 0.63c0.3,-0.22 0.65,-0.41 1.06,-0.55 0.41,-0.14 0.83,-0.22 1.27,-0.22 0.87,0 1.5,0.2 1.91,0.61 0.41,0.41 0.61,1.04 0.61,1.91l0 4.25 -1.89 0 0 -4.16c0,-0.46 -0.09,-0.78 -0.28,-0.96 -0.19,-0.18 -0.52,-0.27 -1.01,-0.27 -0.29,0 -0.58,0.06 -0.87,0.19 -0.29,0.13 -0.54,0.29 -0.74,0.5l0 4.7 -1.89 0 0 -6.63zm10.31 -3.29l1.64 0 -1.23 2.62 -1.53 0 1.12 -2.62zm-1.11 4.69l-0.99 0 0.17 -1.4 2.71 0 0 6.63 -1.89 0 0 -5.23zm3.22 1.92c0,-1.14 0.33,-2 0.99,-2.58 0.66,-0.58 1.57,-0.87 2.73,-0.87 0.47,0 0.87,0.03 1.2,0.1 0.34,0.07 0.66,0.17 0.98,0.32l0 1.36c-0.5,-0.24 -1.11,-0.36 -1.81,-0.36 -0.74,0 -1.29,0.15 -1.64,0.46 -0.36,0.31 -0.54,0.84 -0.54,1.58 0,0.72 0.17,1.24 0.51,1.56 0.34,0.32 0.89,0.48 1.66,0.48 0.69,0 1.3,-0.13 1.83,-0.39l0 1.4c-0.62,0.27 -1.38,0.41 -2.25,0.41 -1.18,0 -2.09,-0.29 -2.72,-0.88 -0.63,-0.59 -0.94,-1.45 -0.94,-2.57zm8.07 -6.02l2.06 0 0 1.48 -2.06 0 0 -1.48zm0.15 4.1l-0.99 0 0.17 -1.4 2.71 0 0 6.63 -1.89 0 0 -5.23zm3.22 1.92c0,-1.12 0.3,-1.98 0.89,-2.57 0.59,-0.59 1.5,-0.89 2.71,-0.89 1.21,0 2.12,0.3 2.72,0.89 0.6,0.59 0.9,1.45 0.9,2.57 0,2.3 -1.2,3.46 -3.61,3.46 -2.4,0 -3.6,-1.15 -3.6,-3.46zm5.29 0c0,-0.67 -0.13,-1.15 -0.38,-1.43 -0.26,-0.28 -0.69,-0.42 -1.31,-0.42 -0.61,0 -1.04,0.14 -1.29,0.42 -0.26,0.28 -0.38,0.76 -0.38,1.43 0,0.67 0.13,1.15 0.38,1.43 0.26,0.28 0.69,0.42 1.29,0.42 0.62,0 1.05,-0.14 1.31,-0.42 0.26,-0.28 0.38,-0.76 0.38,-1.43z"/>
   <path class="fil0" d="M28.83 15l3.72 0c1.87,0 2.65,-2.39 1.14,-3.49l-15.31 -11.13c-0.68,-0.49 -1.6,-0.49 -2.27,0l-15.31 11.13c-1.51,1.1 -0.73,3.49 1.14,3.49l3.72 0 0 13.52c0,1.07 0.87,1.93 1.93,1.93l5.8 0 0 -11.59 7.73 0 0 11.59 5.8 0c1.07,0 1.93,-0.86 1.93,-1.93l0 -13.52z"/>
  </g>
 </g>
</svg>
