<?xml version="1.0" encoding="UTF-8"?>
<!DOCTYPE svg PUBLIC "-//W3C//DTD SVG 1.1//EN" "http://www.w3.org/Graphics/SVG/1.1/DTD/svg11.dtd">
<!-- Creator: CorelDRAW 2019 (64 Bit) -->
<svg xmlns="http://www.w3.org/2000/svg" xml:space="preserve" width="21.1667mm" height="21.1666mm" version="1.1" style="shape-rendering:geometricPrecision; text-rendering:geometricPrecision; image-rendering:optimizeQuality; fill-rule:evenodd; clip-rule:evenodd"
viewBox="0 0 193.01 193.01"
 xmlns:xlink="http://www.w3.org/1999/xlink">
 <defs>
  <style type="text/css">
   <![CDATA[
    .fil0 {fill:#21C25E;fill-rule:nonzero}
    .fil1 {fill:white;fill-rule:nonzero}
   ]]>
  </style>
 </defs>
 <g id="Camada_x0020_1">
  <metadata id="CorelCorpID_0Corel-Layer"/>
  <g id="_1543076086272">
   <g>
    <path class="fil0" d="M96.5 0c53.3,0 96.51,43.21 96.51,96.5 0,53.3 -43.21,96.5 -96.51,96.5 -53.3,0 -96.5,-43.21 -96.5,-96.5 0,-53.3 43.21,-96.5 96.5,-96.5z"/>
    <path class="fil1" d="M126.98 92.57l10.23 0c5.15,0 7.29,-6.59 3.13,-9.62l-42.14 -30.65c-1.86,-1.36 -4.39,-1.36 -6.26,0l-42.14 30.65c-4.16,3.03 -2.02,9.62 3.13,9.62l10.23 0 0 37.22c0,2.94 2.38,5.32 5.32,5.32l15.95 0 0 -31.9 21.27 0 0 31.9 15.95 0c2.94,0 5.32,-2.38 5.32,-5.32l0 -37.22z"/>
   </g>
  </g>
 </g>
</svg>
