<?xml version="1.0" encoding="UTF-8"?>
<!DOCTYPE svg PUBLIC "-//W3C//DTD SVG 1.1//EN" "http://www.w3.org/Graphics/SVG/1.1/DTD/svg11.dtd">
<!-- Creator: CorelDRAW 2019 (64 Bit) -->
<svg xmlns="http://www.w3.org/2000/svg" xml:space="preserve" width="21.1667mm" height="21.1667mm" version="1.1" style="shape-rendering:geometricPrecision; text-rendering:geometricPrecision; image-rendering:optimizeQuality; fill-rule:evenodd; clip-rule:evenodd"
viewBox="0 0 193.01 193.01"
 xmlns:xlink="http://www.w3.org/1999/xlink">
 <defs>
  <style type="text/css">
   <![CDATA[
    .fil1 {fill:#2A2A2A;fill-rule:nonzero}
    .fil0 {fill:white;fill-rule:nonzero}
   ]]>
  </style>
 </defs>
 <g id="Camada_x0020_1">
  <metadata id="CorelCorpID_0Corel-Layer"/>
  <g id="_1543136081264">
   <path class="fil0" d="M96.5 0c53.3,0 96.51,43.21 96.51,96.5 0,53.3 -43.21,96.51 -96.51,96.51 -53.3,0 -96.5,-43.21 -96.5,-96.51 0,-53.3 43.21,-96.5 96.5,-96.5z"/>
   <path class="fil1" d="M93.21 52.01l0 6.74c-19.15,1.59 -34.44,16.89 -36.03,36.04l-6.75 0 0 6.58 6.75 0c1.59,19.14 16.88,34.44 36.03,36.03l0 6.75 6.58 0 0 -6.75c19.15,-1.59 34.44,-16.89 36.03,-36.03l6.75 0 0 -6.58 -6.75 0c-1.59,-19.15 -16.88,-34.45 -36.03,-36.04l0 -6.74 -6.58 0zm3.29 13.16c18.21,0 32.91,14.69 32.91,32.91 0,18.21 -14.69,32.91 -32.91,32.91 -18.21,0 -32.91,-14.69 -32.91,-32.91 0,-18.21 14.69,-32.91 32.91,-32.91zm0 13.16c-10.87,0 -19.74,8.88 -19.74,19.74 0,10.87 8.88,19.74 19.74,19.74 10.86,0 19.74,-8.88 19.74,-19.74 0,-10.86 -8.88,-19.74 -19.74,-19.74z"/>
  </g>
 </g>
</svg>
