<?xml version="1.0" encoding="UTF-8"?>
<!DOCTYPE svg PUBLIC "-//W3C//DTD SVG 1.1//EN" "http://www.w3.org/Graphics/SVG/1.1/DTD/svg11.dtd">
<!-- Creator: CorelDRAW 2019 (64 Bit) -->
<svg xmlns="http://www.w3.org/2000/svg" xml:space="preserve" width="21.1667mm" height="21.1666mm" version="1.1" style="shape-rendering:geometricPrecision; text-rendering:geometricPrecision; image-rendering:optimizeQuality; fill-rule:evenodd; clip-rule:evenodd"
viewBox="0 0 215.36 215.36"
 xmlns:xlink="http://www.w3.org/1999/xlink">
 <defs>
  <style type="text/css">
   <![CDATA[
    .fil0 {fill:#707070;fill-rule:nonzero}
    .fil1 {fill:white;fill-rule:nonzero}
   ]]>
  </style>
 </defs>
 <g id="Camada_x0020_1">
  <metadata id="CorelCorpID_0Corel-Layer"/>
  <g id="_1543169533360">
   <path class="fil0" d="M107.68 0c3.53,0 7.04,0.17 10.55,0.52 3.51,0.35 6.99,0.86 10.45,1.55 3.46,0.69 6.88,1.54 10.25,2.57 3.37,1.02 6.69,2.21 9.95,3.56 3.26,1.35 6.44,2.86 9.55,4.52 3.11,1.66 6.13,3.47 9.06,5.43 2.93,1.96 5.76,4.06 8.49,6.29 2.73,2.24 5.34,4.6 7.83,7.1 2.49,2.49 4.86,5.1 7.1,7.83 2.24,2.73 4.34,5.56 6.29,8.49 1.96,2.93 3.77,5.95 5.43,9.06 1.66,3.11 3.17,6.29 4.52,9.55 1.35,3.26 2.54,6.57 3.56,9.95 1.02,3.37 1.88,6.79 2.57,10.25 0.69,3.46 1.2,6.94 1.55,10.45 0.35,3.51 0.52,7.03 0.52,10.55 0,3.53 -0.17,7.04 -0.52,10.55 -0.35,3.51 -0.86,6.99 -1.55,10.45 -0.69,3.46 -1.54,6.88 -2.57,10.25 -1.02,3.37 -2.21,6.69 -3.56,9.95 -1.35,3.26 -2.86,6.44 -4.52,9.55 -1.66,3.11 -3.47,6.13 -5.43,9.06 -1.96,2.93 -4.06,5.76 -6.29,8.49 -2.24,2.73 -4.6,5.34 -7.1,7.83 -2.49,2.49 -5.1,4.86 -7.83,7.1 -2.73,2.24 -5.56,4.34 -8.49,6.29 -2.93,1.96 -5.95,3.77 -9.06,5.43 -3.11,1.66 -6.29,3.17 -9.55,4.52 -3.26,1.35 -6.57,2.54 -9.95,3.56 -3.37,1.02 -6.79,1.88 -10.25,2.57 -3.46,0.69 -6.94,1.2 -10.45,1.55 -3.51,0.35 -7.03,0.52 -10.55,0.52 -3.53,0 -7.04,-0.17 -10.55,-0.52 -3.51,-0.35 -6.99,-0.86 -10.45,-1.55 -3.46,-0.69 -6.88,-1.54 -10.25,-2.57 -3.37,-1.02 -6.69,-2.21 -9.95,-3.56 -3.26,-1.35 -6.44,-2.85 -9.55,-4.52 -3.11,-1.66 -6.13,-3.47 -9.06,-5.43 -2.93,-1.96 -5.76,-4.06 -8.49,-6.29 -2.73,-2.24 -5.34,-4.6 -7.83,-7.1 -2.49,-2.49 -4.86,-5.1 -7.1,-7.83 -2.24,-2.73 -4.34,-5.56 -6.29,-8.49 -1.96,-2.93 -3.77,-5.95 -5.43,-9.06 -1.66,-3.11 -3.17,-6.29 -4.52,-9.55 -1.35,-3.26 -2.54,-6.57 -3.56,-9.95 -1.02,-3.37 -1.88,-6.79 -2.57,-10.25 -0.69,-3.46 -1.21,-6.94 -1.55,-10.45 -0.35,-3.51 -0.52,-7.03 -0.52,-10.55 0,-3.53 0.17,-7.04 0.52,-10.55 0.34,-3.51 0.86,-6.99 1.55,-10.45 0.69,-3.46 1.54,-6.88 2.57,-10.25 1.02,-3.37 2.21,-6.69 3.56,-9.95 1.35,-3.26 2.86,-6.44 4.52,-9.55 1.66,-3.11 3.47,-6.13 5.43,-9.06 1.96,-2.93 4.06,-5.76 6.29,-8.49 2.24,-2.73 4.6,-5.34 7.1,-7.83 2.49,-2.49 5.1,-4.86 7.83,-7.1 2.73,-2.24 5.56,-4.34 8.49,-6.29 2.93,-1.96 5.95,-3.77 9.06,-5.43 3.11,-1.66 6.29,-3.17 9.55,-4.52 3.26,-1.35 6.57,-2.54 9.95,-3.56 3.37,-1.02 6.79,-1.88 10.25,-2.57 3.46,-0.69 6.94,-1.2 10.45,-1.55 3.51,-0.34 7.03,-0.52 10.55,-0.52z"/>
   <path class="fil1" d="M104.04 64.04c0,-2.97 2.41,-5.38 5.38,-5.38 2.97,0 5.38,2.41 5.38,5.38l0 40 40 0c2.97,0 5.38,2.41 5.38,5.38 0,2.97 -2.41,5.38 -5.38,5.38l-40 0 0 40c0,2.97 -2.41,5.38 -5.38,5.38 -2.97,0 -5.38,-2.41 -5.38,-5.38l0 -40 -40 0c-2.97,0 -5.38,-2.41 -5.38,-5.38 0,-2.97 2.41,-5.38 5.38,-5.38l40 0 0 -40z"/>
  </g>
 </g>
</svg>
