<?xml version="1.0" encoding="UTF-8"?>
<!DOCTYPE svg PUBLIC "-//W3C//DTD SVG 1.1//EN" "http://www.w3.org/Graphics/SVG/1.1/DTD/svg11.dtd">
<!-- Creator: CorelDRAW 2019 (64 Bit) -->
<svg xmlns="http://www.w3.org/2000/svg" xml:space="preserve" width="21.1667mm" height="21.1667mm" version="1.1" style="shape-rendering:geometricPrecision; text-rendering:geometricPrecision; image-rendering:optimizeQuality; fill-rule:evenodd; clip-rule:evenodd"
viewBox="0 0 172.86 172.86"
 xmlns:xlink="http://www.w3.org/1999/xlink">
 <defs>
  <style type="text/css">
   <![CDATA[
    .fil0 {fill:#707070;fill-rule:nonzero}
    .fil1 {fill:white;fill-rule:nonzero}
   ]]>
  </style>
 </defs>
 <g id="Camada_x0020_1">
  <metadata id="CorelCorpID_0Corel-Layer"/>
  <g id="_1542933792480">
   <path class="fil0" d="M86.43 0c2.83,0 5.65,0.14 8.47,0.42 2.82,0.28 5.61,0.69 8.39,1.24 2.78,0.55 5.52,1.24 8.23,2.06 2.71,0.82 5.37,1.77 7.99,2.86 2.61,1.08 5.17,2.29 7.67,3.63 2.5,1.33 4.92,2.79 7.27,4.36 2.35,1.57 4.62,3.26 6.81,5.05 2.19,1.8 4.28,3.69 6.29,5.7 2,2 3.9,4.1 5.7,6.29 1.8,2.19 3.48,4.46 5.05,6.81 1.57,2.35 3.03,4.78 4.36,7.27 1.33,2.5 2.54,5.05 3.63,7.67 1.08,2.61 2.04,5.28 2.86,7.99 0.82,2.71 1.51,5.45 2.06,8.23 0.55,2.78 0.97,5.57 1.24,8.39 0.28,2.82 0.42,5.64 0.42,8.47 0,2.83 -0.14,5.65 -0.42,8.47 -0.28,2.82 -0.69,5.61 -1.24,8.39 -0.55,2.78 -1.24,5.52 -2.06,8.23 -0.82,2.71 -1.77,5.37 -2.86,7.99 -1.08,2.62 -2.29,5.17 -3.63,7.67 -1.33,2.5 -2.79,4.92 -4.36,7.28 -1.57,2.35 -3.26,4.62 -5.05,6.81 -1.8,2.19 -3.69,4.28 -5.7,6.28 -2,2 -4.1,3.9 -6.29,5.7 -2.19,1.8 -4.46,3.48 -6.81,5.05 -2.35,1.57 -4.78,3.03 -7.27,4.36 -2.5,1.33 -5.05,2.54 -7.67,3.63 -2.61,1.08 -5.28,2.04 -7.99,2.86 -2.71,0.82 -5.45,1.51 -8.23,2.06 -2.78,0.55 -5.57,0.97 -8.39,1.24 -2.82,0.28 -5.64,0.42 -8.47,0.42 -2.83,0 -5.65,-0.14 -8.47,-0.42 -2.82,-0.28 -5.61,-0.69 -8.39,-1.24 -2.78,-0.55 -5.52,-1.24 -8.23,-2.06 -2.71,-0.82 -5.37,-1.77 -7.99,-2.86 -2.62,-1.08 -5.17,-2.29 -7.67,-3.63 -2.5,-1.33 -4.92,-2.79 -7.28,-4.36 -2.35,-1.57 -4.62,-3.26 -6.81,-5.05 -2.19,-1.8 -4.28,-3.69 -6.28,-5.7 -2,-2 -3.9,-4.1 -5.7,-6.28 -1.8,-2.19 -3.48,-4.46 -5.05,-6.81 -1.57,-2.35 -3.03,-4.78 -4.36,-7.28 -1.33,-2.5 -2.54,-5.05 -3.63,-7.67 -1.08,-2.61 -2.04,-5.28 -2.86,-7.99 -0.82,-2.71 -1.51,-5.45 -2.06,-8.23 -0.55,-2.78 -0.97,-5.57 -1.24,-8.39 -0.28,-2.82 -0.42,-5.64 -0.42,-8.47 0,-2.83 0.14,-5.65 0.42,-8.47 0.28,-2.82 0.69,-5.61 1.24,-8.39 0.55,-2.78 1.24,-5.52 2.06,-8.23 0.82,-2.71 1.77,-5.37 2.86,-7.99 1.08,-2.61 2.29,-5.17 3.63,-7.67 1.33,-2.5 2.79,-4.92 4.36,-7.27 1.57,-2.35 3.26,-4.62 5.05,-6.81 1.8,-2.19 3.69,-4.28 5.7,-6.29 2,-2 4.1,-3.9 6.28,-5.7 2.19,-1.8 4.46,-3.48 6.81,-5.05 2.35,-1.57 4.78,-3.03 7.28,-4.36 2.5,-1.33 5.05,-2.54 7.67,-3.63 2.61,-1.08 5.28,-2.04 7.99,-2.86 2.71,-0.82 5.45,-1.51 8.23,-2.06 2.78,-0.55 5.57,-0.97 8.39,-1.24 2.82,-0.28 5.64,-0.42 8.47,-0.42z"/>
   <path class="fil1" d="M51.4 92.15c-2.39,0 -4.32,-1.94 -4.32,-4.32 0,-2.39 1.94,-4.32 4.32,-4.32l72.86 0c2.39,0 4.32,1.94 4.32,4.32 0,2.39 -1.94,4.32 -4.32,4.32l-72.86 0z"/>
  </g>
 </g>
</svg>
