<?xml version="1.0" encoding="UTF-8"?>
<!DOCTYPE svg PUBLIC "-//W3C//DTD SVG 1.1//EN" "http://www.w3.org/Graphics/SVG/1.1/DTD/svg11.dtd">
<!-- Creator: CorelDRAW 2019 (64 Bit) -->
<svg xmlns="http://www.w3.org/2000/svg" xml:space="preserve" width="21.1667mm" height="21.1666mm" version="1.1" style="shape-rendering:geometricPrecision; text-rendering:geometricPrecision; image-rendering:optimizeQuality; fill-rule:evenodd; clip-rule:evenodd"
viewBox="0 0 193.01 193.01"
 xmlns:xlink="http://www.w3.org/1999/xlink">
 <defs>
  <style type="text/css">
   <![CDATA[
    .fil1 {fill:red;fill-rule:nonzero}
    .fil0 {fill:white;fill-rule:nonzero}
   ]]>
  </style>
 </defs>
 <g id="Camada_x0020_1">
  <metadata id="CorelCorpID_0Corel-Layer"/>
  <g id="_1543078055440">
   <path class="fil0" d="M96.5 0c53.3,0 96.51,43.21 96.51,96.5 0,53.3 -43.21,96.5 -96.51,96.5 -53.3,0 -96.5,-43.21 -96.5,-96.5 0,-53.3 43.21,-96.5 96.5,-96.5z"/>
   <path class="fil1" d="M96.5 9.65c2.84,0 5.68,0.14 8.51,0.42 2.83,0.28 5.64,0.7 8.43,1.25 2.79,0.56 5.55,1.25 8.27,2.07 2.72,0.83 5.4,1.78 8.03,2.87 2.63,1.09 5.2,2.3 7.71,3.64 2.51,1.34 4.95,2.8 7.31,4.38 2.37,1.58 4.65,3.27 6.85,5.08 2.2,1.8 4.3,3.71 6.32,5.72 2.01,2.01 3.92,4.12 5.72,6.32 1.8,2.2 3.5,4.48 5.08,6.85 1.58,2.37 3.04,4.8 4.38,7.31 1.34,2.51 2.56,5.08 3.64,7.71 1.09,2.63 2.05,5.3 2.87,8.02 0.83,2.72 1.52,5.48 2.07,8.27 0.56,2.79 0.97,5.6 1.25,8.43 0.28,2.83 0.42,5.67 0.42,8.51 0,2.84 -0.14,5.68 -0.42,8.51 -0.28,2.83 -0.7,5.64 -1.25,8.43 -0.55,2.79 -1.25,5.55 -2.07,8.27 -0.83,2.72 -1.78,5.4 -2.87,8.03 -1.09,2.63 -2.3,5.2 -3.64,7.71 -1.34,2.51 -2.8,4.94 -4.38,7.31 -1.58,2.37 -3.27,4.65 -5.08,6.85 -1.8,2.2 -3.71,4.3 -5.72,6.32 -2.01,2.01 -4.12,3.92 -6.32,5.72 -2.2,1.8 -4.48,3.5 -6.85,5.08 -2.36,1.58 -4.8,3.04 -7.31,4.38 -2.51,1.34 -5.08,2.56 -7.71,3.64 -2.63,1.09 -5.3,2.05 -8.03,2.87 -2.72,0.83 -5.48,1.52 -8.27,2.07 -2.79,0.56 -5.6,0.97 -8.43,1.25 -2.83,0.28 -5.67,0.42 -8.51,0.42 -2.84,0 -5.68,-0.14 -8.51,-0.42 -2.83,-0.28 -5.64,-0.69 -8.43,-1.25 -2.79,-0.56 -5.55,-1.25 -8.27,-2.07 -2.72,-0.83 -5.4,-1.78 -8.03,-2.87 -2.63,-1.09 -5.2,-2.3 -7.71,-3.64 -2.51,-1.34 -4.95,-2.8 -7.31,-4.38 -2.37,-1.58 -4.65,-3.27 -6.85,-5.08 -2.2,-1.8 -4.3,-3.71 -6.32,-5.72 -2.01,-2.01 -3.92,-4.12 -5.72,-6.32 -1.8,-2.2 -3.5,-4.48 -5.08,-6.85 -1.58,-2.37 -3.04,-4.8 -4.38,-7.31 -1.34,-2.51 -2.56,-5.08 -3.64,-7.71 -1.09,-2.63 -2.05,-5.3 -2.87,-8.03 -0.83,-2.72 -1.52,-5.48 -2.07,-8.27 -0.56,-2.79 -0.97,-5.6 -1.25,-8.43 -0.28,-2.83 -0.42,-5.67 -0.42,-8.51 0,-2.84 0.14,-5.68 0.42,-8.51 0.28,-2.83 0.7,-5.64 1.25,-8.43 0.55,-2.79 1.24,-5.55 2.07,-8.27 0.83,-2.72 1.78,-5.4 2.87,-8.02 1.09,-2.63 2.3,-5.2 3.64,-7.71 1.34,-2.51 2.8,-4.95 4.38,-7.31 1.58,-2.37 3.27,-4.65 5.08,-6.85 1.8,-2.2 3.71,-4.3 5.72,-6.32 2.01,-2.01 4.12,-3.92 6.32,-5.72 2.2,-1.8 4.48,-3.5 6.85,-5.08 2.37,-1.58 4.8,-3.04 7.31,-4.38 2.51,-1.34 5.08,-2.56 7.71,-3.64 2.63,-1.09 5.3,-2.05 8.03,-2.87 2.72,-0.83 5.48,-1.52 8.27,-2.07 2.79,-0.55 5.6,-0.97 8.43,-1.25 2.83,-0.28 5.67,-0.42 8.51,-0.42z"/>
   <path class="fil0" d="M32.89 120.54l0 -7.41c4.79,1.85 9.7,2.78 14.75,2.78 4.17,0 7.19,-0.49 9.07,-1.47 1.88,-0.98 2.82,-2.8 2.82,-5.48 0,-1.7 -0.4,-3.05 -1.2,-4.05 -0.8,-1 -2.1,-1.87 -3.9,-2.59 -1.8,-0.72 -4.5,-1.54 -8.11,-2.47 -5.35,-1.39 -9.11,-3.15 -11.27,-5.29 -2.16,-2.14 -3.24,-5.08 -3.24,-8.84 0,-4.43 1.62,-7.86 4.86,-10.31 3.24,-2.44 7.98,-3.67 14.2,-3.67 2.73,0 5.37,0.19 7.91,0.58 2.55,0.39 4.62,0.86 6.21,1.43l0 7.41c-3.91,-1.49 -8.23,-2.24 -12.97,-2.24 -3.91,0 -6.84,0.51 -8.8,1.54 -1.96,1.03 -2.93,2.78 -2.93,5.25 0,1.49 0.36,2.69 1.08,3.59 0.72,0.9 1.92,1.7 3.59,2.39 1.67,0.69 4.18,1.45 7.53,2.28 5.82,1.49 9.86,3.42 12.12,5.79 2.26,2.37 3.4,5.43 3.4,9.19 0,4.43 -1.66,7.88 -4.98,10.35 -3.32,2.47 -8.2,3.71 -14.63,3.71 -6.43,0 -11.61,-0.82 -15.52,-2.47zm41.77 -23.01c0,-8.96 1.93,-15.49 5.79,-19.61 3.86,-4.12 9.78,-6.18 17.76,-6.18 7.98,0 13.9,2.06 17.76,6.18 3.86,4.12 5.79,10.66 5.79,19.61 0,8.7 -1.94,15.12 -5.83,19.26 -3.89,4.14 -9.79,6.22 -17.72,6.22 -7.93,0 -13.83,-2.07 -17.72,-6.22 -3.89,-4.14 -5.83,-10.56 -5.83,-19.26zm38.68 0c0,-6.74 -1.2,-11.53 -3.59,-14.36 -2.39,-2.83 -6.24,-4.25 -11.54,-4.25 -5.25,0 -9.07,1.42 -11.46,4.25 -2.39,2.83 -3.59,7.62 -3.59,14.36 0,6.43 1.21,11.1 3.63,14.01 2.42,2.91 6.23,4.36 11.43,4.36 5.25,0 9.08,-1.44 11.5,-4.32 2.42,-2.88 3.63,-7.57 3.63,-14.05z"/>
   <path class="fil0" d="M126.07 120.54l0 -7.41c4.79,1.85 9.7,2.78 14.75,2.78 4.17,0 7.19,-0.49 9.07,-1.47 1.88,-0.98 2.82,-2.8 2.82,-5.48 0,-1.7 -0.4,-3.05 -1.2,-4.05 -0.8,-1 -2.1,-1.87 -3.9,-2.59 -1.8,-0.72 -4.5,-1.54 -8.11,-2.47 -5.35,-1.39 -9.11,-3.15 -11.27,-5.29 -2.16,-2.14 -3.24,-5.08 -3.24,-8.84 0,-4.43 1.62,-7.86 4.86,-10.31 3.24,-2.44 7.98,-3.67 14.2,-3.67 2.73,0 5.37,0.19 7.91,0.58 2.55,0.39 4.62,0.86 6.21,1.43l0 7.41c-3.91,-1.49 -8.23,-2.24 -12.97,-2.24 -3.91,0 -6.84,0.51 -8.8,1.54 -1.96,1.03 -2.93,2.78 -2.93,5.25 0,1.49 0.36,2.69 1.08,3.59 0.72,0.9 1.92,1.7 3.59,2.39 1.67,0.69 4.18,1.45 7.53,2.28 5.82,1.49 9.86,3.42 12.12,5.79 2.26,2.37 3.4,5.43 3.4,9.19 0,4.43 -1.66,7.88 -4.98,10.35 -3.32,2.47 -8.2,3.71 -14.63,3.71 -6.43,0 -11.61,-0.82 -15.52,-2.47z"/>
  </g>
 </g>
</svg>
