<?xml version="1.0" encoding="UTF-8"?>
<!DOCTYPE svg PUBLIC "-//W3C//DTD SVG 1.1//EN" "http://www.w3.org/Graphics/SVG/1.1/DTD/svg11.dtd">
<!-- Creator: CorelDRAW 2019 (64 Bit) -->
<svg xmlns="http://www.w3.org/2000/svg" xml:space="preserve" width="11.5362mm" height="13.3133mm" version="1.1" style="shape-rendering:geometricPrecision; text-rendering:geometricPrecision; image-rendering:optimizeQuality; fill-rule:evenodd; clip-rule:evenodd"
viewBox="0 0 79.85 92.15"
 xmlns:xlink="http://www.w3.org/1999/xlink">
 <defs>
  <style type="text/css">
   <![CDATA[
    .fil0 {fill:#009B3B}
    .fil2 {fill:white}
    .fil1 {fill:white;fill-rule:nonzero}
   ]]>
  </style>
 </defs>
 <g id="Camada_x0020_1">
  <metadata id="CorelCorpID_0Corel-Layer"/>
  <g id="_1543144885520">
   <path class="fil0" d="M39.07 2.45c20.69,-0.47 37.86,15.92 38.33,36.61 0.25,10.56 -3.9,20.19 -10.78,27.16l-20.52 21.3c-2.73,2.83 -7.31,2.94 -10.17,0.23l-21.6 -20.45 0.02 0.02c-7.12,-6.64 -11.67,-16.04 -11.91,-26.54 -0.47,-20.69 15.92,-37.86 36.61,-38.33l0 -0.01z"/>
   <path class="fil1" d="M59.2 7.78c-5.87,-3.53 -12.78,-5.49 -20.13,-5.32l-0 0.01c-20.69,0.47 -37.08,17.63 -36.61,38.33 0.24,10.5 4.79,19.9 11.91,26.54l-0.02 -0.02 21.6 20.45c0.38,0.36 0.79,0.67 1.23,0.93 2.82,1.69 6.57,1.29 8.94,-1.17l20.52 -21.3c6.87,-6.97 11.02,-16.61 10.78,-27.16 -0.3,-13.34 -7.54,-24.89 -18.19,-31.29zm1.26 -2.09c5.67,3.41 10.45,8.21 13.82,13.89 3.48,5.86 5.4,12.58 5.56,19.44 0.13,5.49 -0.85,10.84 -2.9,15.9 -1.98,4.88 -4.86,9.26 -8.57,13.02l-20.51 21.29c-3.09,3.21 -8.12,3.87 -11.95,1.56 -0.59,-0.36 -1.15,-0.78 -1.65,-1.25l-21.56 -20.41 -0 0c-3.85,-3.59 -6.9,-7.83 -9.09,-12.59 -2.26,-4.94 -3.47,-10.21 -3.6,-15.68 -0.24,-10.66 3.68,-20.78 11.05,-28.49 7.36,-7.71 17.29,-12.09 27.94,-12.33l0.02 -0.01c7.57,-0.17 14.99,1.79 21.45,5.67z"/>
   <path class="fil2" d="M39.59 24.72c8.4,-0.19 15.37,6.46 15.56,14.86 0.19,8.4 -6.46,15.37 -14.86,15.56 -8.4,0.19 -15.37,-6.46 -15.56,-14.86 -0.19,-8.4 6.46,-15.37 14.86,-15.56z"/>
  </g>
 </g>
</svg>
