<?xml version="1.0" encoding="UTF-8"?>
<!DOCTYPE svg PUBLIC "-//W3C//DTD SVG 1.1//EN" "http://www.w3.org/Graphics/SVG/1.1/DTD/svg11.dtd">
<!-- Creator: CorelDRAW 2019 (64 Bit) -->
<svg xmlns="http://www.w3.org/2000/svg" xml:space="preserve" width="6.8273mm" height="6.8277mm" version="1.1" style="shape-rendering:geometricPrecision; text-rendering:geometricPrecision; image-rendering:optimizeQuality; fill-rule:evenodd; clip-rule:evenodd"
viewBox="0 0 23.94 23.94"
 xmlns:xlink="http://www.w3.org/1999/xlink">
 <defs>
  <style type="text/css">
   <![CDATA[
    .fil0 {fill:#009B3B}
    .fil1 {fill:white;fill-rule:nonzero}
   ]]>
  </style>
 </defs>
 <g id="Camada_x0020_1">
  <metadata id="CorelCorpID_0Corel-Layer"/>
  <g id="_1543082316048">
   <path class="fil0" d="M6.23 2.9c5.01,-3.17 11.64,-1.68 14.81,3.33 3.17,5.01 1.68,11.64 -3.33,14.81 -5.01,3.17 -11.64,1.68 -14.81,-3.33 -3.17,-5.01 -1.68,-11.64 3.33,-14.81z"/>
   <path class="fil1" d="M11.96 1.24c-1.96,0 -3.95,0.54 -5.73,1.66 -5.01,3.17 -6.5,9.8 -3.33,14.81 2.04,3.23 5.52,5 9.08,5 1.96,0 3.95,-0.54 5.73,-1.66 5.01,-3.17 6.5,-9.8 3.33,-14.81 -2.04,-3.23 -5.52,-5 -9.08,-5zm0 -1.24c4.13,0 7.92,2.08 10.12,5.57 1.71,2.7 2.26,5.91 1.56,9.03 -0.7,3.12 -2.58,5.78 -5.28,7.49 -1.92,1.21 -4.13,1.86 -6.39,1.86 -4.13,0 -7.92,-2.08 -10.12,-5.57 -3.53,-5.58 -1.86,-12.99 3.72,-16.52 1.92,-1.21 4.13,-1.86 6.39,-1.86z"/>
  </g>
 </g>
</svg>
