<?xml version="1.0" encoding="UTF-8"?>
<!DOCTYPE svg PUBLIC "-//W3C//DTD SVG 1.1//EN" "http://www.w3.org/Graphics/SVG/1.1/DTD/svg11.dtd">
<!-- Creator: CorelDRAW 2019 (64 Bit) -->
<svg xmlns="http://www.w3.org/2000/svg" xml:space="preserve" width="29.224mm" height="5.2402mm" version="1.1" style="shape-rendering:geometricPrecision; text-rendering:geometricPrecision; image-rendering:optimizeQuality; fill-rule:evenodd; clip-rule:evenodd"
viewBox="0 0 147.87 26.51"
 xmlns:xlink="http://www.w3.org/1999/xlink">
 <defs>
  <style type="text/css">
   <![CDATA[
    .fil1 {fill:#707070;fill-rule:nonzero}
    .fil0 {fill:#A5A5A5;fill-rule:nonzero}
    .fil4 {fill:#FF7712;fill-rule:nonzero}
    .fil3 {fill:#FFA40B;fill-rule:nonzero}
    .fil2 {fill:white;fill-rule:nonzero}
   ]]>
  </style>
 </defs>
 <g id="Camada_x0020_1">
  <metadata id="CorelCorpID_0Corel-Layer"/>
  <path class="fil0" d="M134.62 0c7.31,0 13.24,5.93 13.24,13.24 0,7.32 -5.93,13.24 -13.24,13.24 -7.31,0 -13.24,-5.93 -13.24,-13.24 0,-7.31 5.93,-13.24 13.24,-13.24z"/>
  <path class="fil1" d="M136.54 26.51c0.06,-0.01 0.11,-0.01 0.17,-0.02 0.44,-0.08 0.88,-0.17 1.31,-0.29 0.43,-0.12 0.86,-0.26 1.28,-0.42 0.42,-0.16 0.83,-0.35 1.23,-0.55 0.4,-0.2 0.79,-0.43 1.17,-0.67 0.38,-0.24 0.74,-0.5 1.09,-0.78 0.35,-0.28 0.69,-0.57 1.01,-0.89 0.32,-0.31 0.63,-0.64 0.92,-0.98 0.29,-0.34 0.56,-0.7 0.81,-1.07 0.25,-0.37 0.49,-0.75 0.7,-1.15 0.22,-0.39 0.41,-0.8 0.59,-1.21 0.15,-0.36 0.29,-0.74 0.41,-1.11l-5.68 -5.68c-0.09,-0.03 -0.16,-0.06 -0.3,-0.1 -0.41,-0.1 -0.97,-0.19 -1.56,-0.27 -0.15,-0.02 -0.28,-0.04 -0.43,-0.06l-4.78 -4.78c-0.06,0.07 -0.11,0.14 -0.18,0.25 -0.22,0.35 -0.48,0.86 -0.74,1.39 -0.26,0.53 -0.51,1.07 -0.75,1.52 -0.12,0.23 -0.23,0.43 -0.34,0.6 -0.11,0.17 -0.18,0.31 -0.38,0.45 -0.2,0.14 -0.35,0.17 -0.55,0.22 -0.2,0.05 -0.42,0.09 -0.67,0.12 -0.5,0.07 -1.1,0.14 -1.69,0.21 -0.58,0.07 -1.15,0.15 -1.56,0.24 -0.13,0.03 -0.21,0.06 -0.3,0.09 0.05,0.08 0.09,0.15 0.18,0.25 0.17,0.2 0.38,0.42 0.62,0.66l2.25 2.25c0.09,0.11 0.17,0.22 0.23,0.4 0.07,0.23 0.05,0.39 0.04,0.59 -0.02,0.2 -0.05,0.43 -0.09,0.68 -0.09,0.5 -0.21,1.09 -0.32,1.66 -0.11,0.58 -0.21,1.14 -0.25,1.56 -0.01,0.14 -0.01,0.22 -0.01,0.31l6.58 6.58z"/>
  <path class="fil2" d="M134.46 6.49c0.06,0.07 0.11,0.14 0.18,0.26 0.21,0.36 0.47,0.87 0.71,1.4 0.25,0.53 0.5,1.08 0.72,1.54 0.11,0.23 0.22,0.43 0.32,0.6 0.11,0.17 0.18,0.31 0.38,0.45 0.19,0.14 0.35,0.18 0.55,0.22 0.2,0.05 0.42,0.09 0.67,0.13 0.5,0.08 1.1,0.16 1.68,0.24 0.58,0.08 1.15,0.17 1.55,0.27 0.13,0.03 0.21,0.06 0.3,0.1 -0.05,0.08 -0.1,0.15 -0.19,0.25 -0.27,0.31 -0.69,0.71 -1.12,1.11 -0.43,0.4 -0.88,0.8 -1.24,1.16 -0.18,0.18 -0.34,0.34 -0.47,0.49 -0.13,0.15 -0.24,0.27 -0.32,0.5 -0.08,0.23 -0.06,0.39 -0.05,0.59 0.01,0.2 0.04,0.43 0.08,0.68 0.08,0.5 0.19,1.09 0.29,1.67 0.1,0.58 0.19,1.14 0.22,1.56 0.01,0.14 0,0.22 0,0.31 -0.09,-0.03 -0.17,-0.05 -0.3,-0.1 -0.38,-0.16 -0.89,-0.43 -1.41,-0.72 -0.51,-0.28 -1.04,-0.58 -1.49,-0.82 -0.22,-0.12 -0.43,-0.22 -0.62,-0.3 -0.19,-0.08 -0.33,-0.15 -0.57,-0.15 -0.24,0 -0.39,0.06 -0.57,0.14 -0.19,0.07 -0.4,0.17 -0.62,0.29 -0.45,0.23 -0.98,0.52 -1.5,0.8 -0.52,0.28 -1.03,0.54 -1.42,0.69 -0.13,0.05 -0.21,0.07 -0.3,0.1 -0,-0.09 -0.01,-0.18 0.01,-0.31 0.04,-0.41 0.14,-0.98 0.25,-1.55 0.11,-0.58 0.24,-1.17 0.32,-1.66 0.04,-0.25 0.08,-0.48 0.09,-0.68 0.02,-0.2 0.04,-0.36 -0.04,-0.59 -0.07,-0.23 -0.18,-0.35 -0.31,-0.5 -0.13,-0.16 -0.29,-0.32 -0.47,-0.5 -0.36,-0.36 -0.8,-0.77 -1.22,-1.18 -0.42,-0.41 -0.83,-0.81 -1.1,-1.13 -0.09,-0.11 -0.13,-0.18 -0.18,-0.25 0.09,-0.03 0.16,-0.06 0.3,-0.09 0.41,-0.09 0.98,-0.17 1.56,-0.24 0.58,-0.07 1.18,-0.14 1.69,-0.21 0.25,-0.04 0.48,-0.08 0.67,-0.12 0.2,-0.05 0.35,-0.08 0.55,-0.22 0.2,-0.14 0.28,-0.28 0.38,-0.45 0.11,-0.17 0.22,-0.37 0.33,-0.6 0.23,-0.45 0.49,-1 0.75,-1.52 0.26,-0.53 0.52,-1.04 0.74,-1.39 0.07,-0.12 0.13,-0.18 0.18,-0.25l0 0z"/>
  <path class="fil3" d="M104.28 0c7.31,0 13.24,5.93 13.24,13.24 0,7.32 -5.93,13.24 -13.24,13.24 -7.32,0 -13.24,-5.93 -13.24,-13.24 0,-7.31 5.93,-13.24 13.24,-13.24z"/>
  <path class="fil4" d="M106.19 26.51c0.06,-0.01 0.11,-0.01 0.17,-0.02 0.44,-0.08 0.88,-0.17 1.31,-0.29 0.43,-0.12 0.86,-0.26 1.28,-0.42 0.42,-0.16 0.83,-0.35 1.23,-0.55 0.4,-0.2 0.79,-0.43 1.17,-0.67 0.38,-0.24 0.74,-0.5 1.09,-0.78 0.35,-0.28 0.69,-0.57 1.01,-0.89 0.32,-0.31 0.63,-0.64 0.92,-0.98 0.29,-0.34 0.56,-0.7 0.81,-1.07 0.25,-0.37 0.49,-0.75 0.7,-1.15 0.22,-0.39 0.41,-0.8 0.59,-1.21 0.15,-0.36 0.29,-0.74 0.41,-1.11l-5.68 -5.68c-0.09,-0.03 -0.16,-0.06 -0.3,-0.1 -0.41,-0.1 -0.97,-0.19 -1.56,-0.27 -0.15,-0.02 -0.28,-0.04 -0.43,-0.06l-4.78 -4.78c-0.06,0.07 -0.11,0.14 -0.18,0.25 -0.22,0.35 -0.48,0.86 -0.74,1.39 -0.26,0.53 -0.51,1.07 -0.75,1.52 -0.12,0.23 -0.23,0.43 -0.34,0.6 -0.11,0.17 -0.19,0.31 -0.38,0.45 -0.2,0.14 -0.35,0.17 -0.55,0.22 -0.2,0.05 -0.42,0.09 -0.67,0.12 -0.5,0.07 -1.1,0.14 -1.69,0.21 -0.58,0.07 -1.15,0.15 -1.56,0.24 -0.13,0.03 -0.21,0.06 -0.3,0.09 0.05,0.08 0.09,0.15 0.18,0.25 0.17,0.2 0.38,0.42 0.62,0.66l2.25 2.25c0.09,0.11 0.17,0.22 0.23,0.4 0.07,0.23 0.05,0.39 0.04,0.59 -0.02,0.2 -0.05,0.43 -0.09,0.68 -0.09,0.5 -0.21,1.09 -0.32,1.66 -0.11,0.58 -0.21,1.14 -0.25,1.56 -0.01,0.14 -0.01,0.22 -0.01,0.31l6.58 6.58z"/>
  <path class="fil2" d="M104.12 6.49c0.06,0.07 0.11,0.14 0.18,0.26 0.21,0.36 0.47,0.87 0.71,1.4 0.25,0.53 0.5,1.08 0.72,1.54 0.11,0.23 0.22,0.43 0.32,0.6 0.11,0.17 0.18,0.31 0.38,0.45 0.19,0.14 0.35,0.18 0.55,0.22 0.2,0.05 0.42,0.09 0.67,0.13 0.5,0.08 1.1,0.16 1.68,0.24 0.58,0.08 1.15,0.17 1.56,0.27 0.13,0.03 0.21,0.06 0.3,0.1 -0.05,0.08 -0.1,0.15 -0.19,0.25 -0.27,0.31 -0.69,0.71 -1.12,1.11 -0.43,0.4 -0.88,0.8 -1.24,1.16 -0.18,0.18 -0.34,0.34 -0.47,0.49 -0.13,0.15 -0.24,0.27 -0.32,0.5 -0.08,0.23 -0.06,0.39 -0.05,0.59 0.01,0.2 0.04,0.43 0.08,0.68 0.08,0.5 0.19,1.09 0.29,1.67 0.1,0.58 0.19,1.14 0.22,1.56 0.01,0.14 0,0.22 0,0.31 -0.09,-0.03 -0.17,-0.05 -0.3,-0.1 -0.38,-0.16 -0.89,-0.43 -1.41,-0.72 -0.51,-0.28 -1.04,-0.58 -1.49,-0.82 -0.22,-0.12 -0.43,-0.22 -0.62,-0.3 -0.19,-0.08 -0.33,-0.15 -0.57,-0.15 -0.24,0 -0.39,0.06 -0.57,0.14 -0.19,0.07 -0.4,0.17 -0.62,0.29 -0.45,0.23 -0.98,0.52 -1.5,0.8 -0.52,0.28 -1.03,0.54 -1.42,0.69 -0.13,0.05 -0.21,0.07 -0.3,0.1 -0,-0.09 -0.01,-0.18 0.01,-0.31 0.04,-0.41 0.14,-0.98 0.25,-1.55 0.11,-0.58 0.24,-1.17 0.32,-1.66 0.04,-0.25 0.08,-0.48 0.09,-0.68 0.02,-0.2 0.04,-0.36 -0.04,-0.59 -0.07,-0.23 -0.18,-0.35 -0.31,-0.5 -0.13,-0.16 -0.29,-0.32 -0.47,-0.5 -0.36,-0.36 -0.8,-0.77 -1.22,-1.18 -0.42,-0.41 -0.83,-0.81 -1.1,-1.13 -0.09,-0.11 -0.13,-0.18 -0.18,-0.25 0.09,-0.03 0.16,-0.06 0.3,-0.09 0.41,-0.09 0.98,-0.17 1.56,-0.24 0.58,-0.07 1.18,-0.14 1.69,-0.21 0.25,-0.04 0.48,-0.08 0.67,-0.12 0.2,-0.05 0.35,-0.08 0.55,-0.22 0.2,-0.14 0.28,-0.28 0.38,-0.45 0.11,-0.17 0.22,-0.37 0.33,-0.6 0.23,-0.45 0.49,-1 0.75,-1.52 0.26,-0.53 0.52,-1.04 0.74,-1.39 0.07,-0.12 0.13,-0.18 0.18,-0.25l0 0z"/>
  <path class="fil3" d="M43.59 0c7.32,0 13.24,5.93 13.24,13.24 0,7.32 -5.93,13.24 -13.24,13.24 -7.31,0 -13.24,-5.93 -13.24,-13.24 0,-7.31 5.93,-13.24 13.24,-13.24z"/>
  <path class="fil4" d="M45.5 26.51c0.06,-0.01 0.11,-0.01 0.17,-0.02 0.44,-0.08 0.88,-0.17 1.31,-0.29 0.43,-0.12 0.86,-0.26 1.28,-0.42 0.42,-0.16 0.83,-0.35 1.23,-0.55 0.4,-0.2 0.79,-0.43 1.17,-0.67 0.38,-0.24 0.74,-0.5 1.09,-0.78 0.35,-0.28 0.69,-0.57 1.01,-0.89 0.32,-0.31 0.63,-0.64 0.92,-0.98 0.29,-0.34 0.56,-0.7 0.81,-1.07 0.25,-0.37 0.49,-0.75 0.7,-1.15 0.22,-0.39 0.41,-0.8 0.59,-1.21 0.15,-0.36 0.29,-0.74 0.41,-1.11l-5.68 -5.68c-0.09,-0.03 -0.16,-0.06 -0.3,-0.1 -0.41,-0.1 -0.97,-0.19 -1.56,-0.27 -0.15,-0.02 -0.28,-0.04 -0.43,-0.06l-4.78 -4.78c-0.06,0.07 -0.11,0.14 -0.18,0.25 -0.22,0.35 -0.48,0.86 -0.74,1.39 -0.26,0.53 -0.51,1.07 -0.75,1.52 -0.12,0.23 -0.23,0.43 -0.33,0.6 -0.11,0.17 -0.19,0.31 -0.38,0.45 -0.2,0.14 -0.35,0.17 -0.55,0.22 -0.2,0.05 -0.42,0.09 -0.67,0.12 -0.5,0.07 -1.1,0.14 -1.69,0.21 -0.58,0.07 -1.15,0.15 -1.56,0.24 -0.13,0.03 -0.21,0.06 -0.3,0.09 0.05,0.08 0.09,0.15 0.18,0.25 0.17,0.2 0.38,0.42 0.62,0.66l2.25 2.25c0.09,0.11 0.17,0.22 0.23,0.4 0.07,0.23 0.05,0.39 0.04,0.59 -0.02,0.2 -0.05,0.43 -0.09,0.68 -0.09,0.5 -0.21,1.09 -0.32,1.66 -0.11,0.58 -0.21,1.14 -0.25,1.56 -0.01,0.14 -0.01,0.22 -0.01,0.31l6.58 6.58z"/>
  <path class="fil2" d="M43.43 6.49c0.06,0.07 0.11,0.14 0.18,0.26 0.21,0.36 0.47,0.87 0.71,1.4 0.25,0.53 0.5,1.08 0.72,1.54 0.11,0.23 0.22,0.43 0.32,0.6 0.11,0.17 0.18,0.31 0.38,0.45 0.19,0.14 0.35,0.18 0.55,0.22 0.2,0.05 0.42,0.09 0.67,0.13 0.5,0.08 1.1,0.16 1.68,0.24 0.58,0.08 1.15,0.17 1.56,0.27 0.13,0.03 0.21,0.06 0.3,0.1 -0.05,0.08 -0.1,0.15 -0.19,0.25 -0.27,0.31 -0.69,0.71 -1.12,1.11 -0.43,0.4 -0.88,0.8 -1.24,1.16 -0.18,0.18 -0.34,0.34 -0.47,0.49 -0.13,0.15 -0.24,0.27 -0.32,0.5 -0.08,0.23 -0.06,0.39 -0.05,0.59 0.01,0.2 0.04,0.43 0.08,0.68 0.08,0.5 0.19,1.09 0.3,1.67 0.1,0.58 0.19,1.14 0.22,1.56 0.01,0.14 0,0.22 0,0.31 -0.09,-0.03 -0.17,-0.05 -0.3,-0.1 -0.38,-0.16 -0.89,-0.43 -1.41,-0.72 -0.51,-0.28 -1.04,-0.58 -1.49,-0.82 -0.23,-0.12 -0.43,-0.22 -0.62,-0.3 -0.19,-0.08 -0.33,-0.15 -0.57,-0.15 -0.24,0 -0.39,0.06 -0.57,0.14 -0.19,0.07 -0.4,0.17 -0.62,0.29 -0.45,0.23 -0.98,0.52 -1.5,0.8 -0.52,0.28 -1.03,0.54 -1.42,0.69 -0.13,0.05 -0.21,0.07 -0.3,0.1 -0,-0.09 -0.01,-0.18 0.01,-0.31 0.04,-0.41 0.14,-0.98 0.25,-1.55 0.11,-0.58 0.24,-1.17 0.32,-1.66 0.04,-0.25 0.08,-0.48 0.09,-0.68 0.02,-0.2 0.04,-0.36 -0.04,-0.59 -0.07,-0.23 -0.18,-0.35 -0.31,-0.5 -0.13,-0.16 -0.29,-0.32 -0.47,-0.5 -0.36,-0.36 -0.8,-0.77 -1.22,-1.18 -0.42,-0.41 -0.83,-0.81 -1.1,-1.13 -0.09,-0.11 -0.13,-0.18 -0.18,-0.25 0.09,-0.03 0.16,-0.06 0.3,-0.09 0.41,-0.09 0.98,-0.17 1.56,-0.24 0.58,-0.07 1.18,-0.14 1.69,-0.21 0.25,-0.04 0.48,-0.08 0.67,-0.12 0.2,-0.05 0.35,-0.08 0.55,-0.22 0.2,-0.14 0.27,-0.28 0.38,-0.45 0.11,-0.17 0.22,-0.37 0.33,-0.6 0.23,-0.45 0.49,-1 0.74,-1.52 0.26,-0.53 0.52,-1.04 0.74,-1.39 0.07,-0.12 0.13,-0.18 0.18,-0.25l0 0z"/>
  <path class="fil3" d="M73.93 0c7.31,0 13.24,5.93 13.24,13.24 0,7.32 -5.93,13.24 -13.24,13.24 -7.32,0 -13.24,-5.93 -13.24,-13.24 0,-7.31 5.93,-13.24 13.24,-13.24z"/>
  <path class="fil4" d="M75.85 26.51c0.06,-0.01 0.11,-0.01 0.17,-0.02 0.44,-0.08 0.88,-0.17 1.31,-0.29 0.43,-0.12 0.86,-0.26 1.28,-0.42 0.42,-0.16 0.83,-0.35 1.23,-0.55 0.4,-0.2 0.79,-0.43 1.17,-0.67 0.38,-0.24 0.74,-0.5 1.09,-0.78 0.35,-0.28 0.69,-0.57 1.01,-0.89 0.32,-0.31 0.63,-0.64 0.92,-0.98 0.29,-0.34 0.56,-0.7 0.81,-1.07 0.25,-0.37 0.49,-0.75 0.7,-1.15 0.22,-0.39 0.41,-0.8 0.59,-1.21 0.15,-0.36 0.29,-0.74 0.41,-1.11l-5.68 -5.68c-0.09,-0.03 -0.16,-0.06 -0.3,-0.1 -0.4,-0.1 -0.97,-0.19 -1.55,-0.27 -0.15,-0.02 -0.28,-0.04 -0.43,-0.06l-4.78 -4.78c-0.06,0.07 -0.11,0.14 -0.18,0.25 -0.22,0.35 -0.48,0.86 -0.74,1.39 -0.26,0.53 -0.51,1.07 -0.75,1.52 -0.12,0.23 -0.23,0.43 -0.33,0.6 -0.11,0.17 -0.19,0.31 -0.38,0.45 -0.2,0.14 -0.35,0.17 -0.55,0.22 -0.2,0.05 -0.42,0.09 -0.67,0.12 -0.5,0.07 -1.1,0.14 -1.69,0.21 -0.58,0.07 -1.15,0.15 -1.56,0.24 -0.13,0.03 -0.21,0.06 -0.3,0.09 0.05,0.08 0.1,0.15 0.18,0.25 0.16,0.2 0.38,0.42 0.62,0.66l2.25 2.25c0.09,0.11 0.17,0.22 0.23,0.4 0.07,0.23 0.05,0.39 0.04,0.59 -0.02,0.2 -0.05,0.43 -0.09,0.68 -0.09,0.5 -0.21,1.09 -0.32,1.66 -0.11,0.58 -0.21,1.14 -0.25,1.56 -0.01,0.14 -0.01,0.22 -0.01,0.31l6.58 6.58z"/>
  <path class="fil2" d="M73.78 6.49c0.06,0.07 0.11,0.14 0.18,0.26 0.21,0.36 0.47,0.87 0.71,1.4 0.25,0.53 0.5,1.08 0.72,1.54 0.11,0.23 0.22,0.43 0.32,0.6 0.11,0.17 0.18,0.31 0.38,0.45 0.19,0.14 0.35,0.18 0.55,0.22 0.2,0.05 0.42,0.09 0.67,0.13 0.5,0.08 1.1,0.16 1.68,0.24 0.58,0.08 1.15,0.17 1.56,0.27 0.13,0.03 0.21,0.06 0.3,0.1 -0.05,0.08 -0.1,0.15 -0.19,0.25 -0.27,0.31 -0.69,0.71 -1.12,1.11 -0.43,0.4 -0.88,0.8 -1.24,1.16 -0.18,0.18 -0.34,0.34 -0.47,0.49 -0.13,0.15 -0.24,0.27 -0.32,0.5 -0.08,0.23 -0.06,0.39 -0.05,0.59 0.01,0.2 0.04,0.43 0.08,0.68 0.08,0.5 0.19,1.09 0.3,1.67 0.1,0.58 0.19,1.14 0.22,1.56 0.01,0.14 0,0.22 0,0.31 -0.09,-0.03 -0.17,-0.05 -0.3,-0.1 -0.38,-0.16 -0.89,-0.43 -1.41,-0.72 -0.51,-0.28 -1.04,-0.58 -1.49,-0.82 -0.23,-0.12 -0.43,-0.22 -0.62,-0.3 -0.19,-0.08 -0.33,-0.15 -0.57,-0.15 -0.24,0 -0.39,0.06 -0.57,0.14 -0.19,0.07 -0.4,0.17 -0.62,0.29 -0.45,0.23 -0.98,0.52 -1.5,0.8 -0.52,0.28 -1.03,0.54 -1.42,0.69 -0.13,0.05 -0.21,0.07 -0.3,0.1 -0,-0.09 -0.01,-0.18 0.01,-0.31 0.04,-0.41 0.14,-0.98 0.25,-1.55 0.11,-0.58 0.24,-1.17 0.32,-1.66 0.04,-0.25 0.08,-0.48 0.09,-0.68 0.02,-0.2 0.04,-0.36 -0.04,-0.59 -0.07,-0.23 -0.18,-0.35 -0.31,-0.5 -0.13,-0.16 -0.29,-0.32 -0.47,-0.5 -0.36,-0.36 -0.8,-0.77 -1.22,-1.18 -0.42,-0.41 -0.83,-0.81 -1.1,-1.13 -0.09,-0.11 -0.13,-0.18 -0.18,-0.25 0.09,-0.03 0.16,-0.06 0.3,-0.09 0.41,-0.09 0.98,-0.17 1.56,-0.24 0.58,-0.07 1.18,-0.14 1.69,-0.21 0.25,-0.04 0.48,-0.08 0.67,-0.12 0.2,-0.05 0.35,-0.08 0.55,-0.22 0.2,-0.14 0.27,-0.28 0.38,-0.45 0.11,-0.17 0.22,-0.37 0.33,-0.6 0.23,-0.45 0.49,-1 0.75,-1.52 0.26,-0.53 0.52,-1.04 0.74,-1.39 0.07,-0.12 0.13,-0.18 0.18,-0.25l0 0z"/>
  <path class="fil3" d="M13.24 0c7.31,0 13.24,5.93 13.24,13.24 0,7.32 -5.93,13.24 -13.24,13.24 -7.31,0 -13.24,-5.93 -13.24,-13.24 0,-7.31 5.93,-13.24 13.24,-13.24z"/>
  <path class="fil4" d="M15.16 26.51c0.06,-0.01 0.11,-0.01 0.17,-0.02 0.44,-0.08 0.88,-0.17 1.31,-0.29 0.43,-0.12 0.86,-0.26 1.28,-0.42 0.42,-0.16 0.83,-0.35 1.23,-0.55 0.4,-0.2 0.79,-0.43 1.17,-0.67 0.38,-0.24 0.74,-0.5 1.09,-0.78 0.35,-0.28 0.69,-0.57 1.01,-0.89 0.32,-0.31 0.63,-0.64 0.92,-0.98 0.29,-0.34 0.56,-0.7 0.81,-1.07 0.25,-0.37 0.49,-0.75 0.7,-1.15 0.22,-0.39 0.41,-0.8 0.59,-1.21 0.15,-0.36 0.29,-0.74 0.41,-1.11l-5.68 -5.68c-0.09,-0.03 -0.16,-0.06 -0.3,-0.1 -0.41,-0.1 -0.97,-0.19 -1.56,-0.27 -0.15,-0.02 -0.28,-0.04 -0.43,-0.06l-4.78 -4.78c-0.06,0.07 -0.11,0.14 -0.18,0.25 -0.22,0.35 -0.48,0.86 -0.74,1.39 -0.26,0.53 -0.51,1.07 -0.75,1.52 -0.12,0.23 -0.23,0.43 -0.34,0.6 -0.11,0.17 -0.18,0.31 -0.38,0.45 -0.2,0.14 -0.35,0.17 -0.55,0.22 -0.2,0.05 -0.42,0.09 -0.67,0.12 -0.5,0.07 -1.1,0.14 -1.69,0.21 -0.58,0.07 -1.15,0.15 -1.56,0.24 -0.13,0.03 -0.21,0.06 -0.3,0.09 0.05,0.08 0.09,0.15 0.18,0.25 0.17,0.2 0.38,0.42 0.62,0.66l2.25 2.25c0.09,0.11 0.17,0.22 0.23,0.4 0.07,0.23 0.05,0.39 0.04,0.59 -0.02,0.2 -0.05,0.43 -0.09,0.68 -0.09,0.5 -0.21,1.09 -0.32,1.66 -0.11,0.58 -0.21,1.14 -0.25,1.56 -0.01,0.14 -0.01,0.22 -0.01,0.31l6.58 6.58z"/>
  <path class="fil2" d="M13.08 6.49c0.06,0.07 0.11,0.14 0.18,0.26 0.21,0.36 0.47,0.87 0.71,1.4 0.25,0.53 0.5,1.08 0.72,1.54 0.11,0.23 0.22,0.43 0.32,0.6 0.11,0.17 0.18,0.31 0.38,0.45 0.19,0.14 0.35,0.18 0.55,0.22 0.2,0.05 0.42,0.09 0.67,0.13 0.5,0.08 1.1,0.16 1.68,0.24 0.58,0.08 1.15,0.17 1.55,0.27 0.13,0.03 0.21,0.06 0.3,0.1 -0.05,0.08 -0.1,0.15 -0.19,0.25 -0.27,0.31 -0.69,0.71 -1.12,1.11 -0.43,0.4 -0.88,0.8 -1.24,1.16 -0.18,0.18 -0.34,0.34 -0.47,0.49 -0.13,0.15 -0.24,0.27 -0.32,0.5 -0.08,0.23 -0.06,0.39 -0.05,0.59 0.01,0.2 0.04,0.43 0.08,0.68 0.08,0.5 0.19,1.09 0.3,1.67 0.1,0.58 0.19,1.14 0.22,1.56 0.01,0.14 0,0.22 0,0.31 -0.09,-0.03 -0.17,-0.05 -0.3,-0.1 -0.38,-0.16 -0.89,-0.43 -1.41,-0.72 -0.51,-0.28 -1.04,-0.58 -1.49,-0.82 -0.22,-0.12 -0.43,-0.22 -0.62,-0.3 -0.19,-0.08 -0.33,-0.15 -0.57,-0.15 -0.24,0 -0.39,0.06 -0.57,0.14 -0.19,0.07 -0.4,0.17 -0.62,0.29 -0.45,0.23 -0.98,0.52 -1.5,0.8 -0.52,0.28 -1.03,0.54 -1.42,0.69 -0.13,0.05 -0.21,0.07 -0.3,0.1 -0,-0.09 -0.01,-0.18 0.01,-0.31 0.04,-0.41 0.14,-0.98 0.25,-1.55 0.11,-0.58 0.24,-1.17 0.32,-1.66 0.04,-0.25 0.08,-0.48 0.09,-0.68 0.02,-0.2 0.04,-0.36 -0.04,-0.59 -0.07,-0.23 -0.18,-0.35 -0.31,-0.5 -0.13,-0.16 -0.29,-0.32 -0.47,-0.5 -0.36,-0.36 -0.8,-0.77 -1.22,-1.18 -0.42,-0.41 -0.83,-0.81 -1.1,-1.13 -0.09,-0.11 -0.13,-0.18 -0.18,-0.25 0.09,-0.03 0.16,-0.06 0.3,-0.09 0.41,-0.09 0.98,-0.17 1.56,-0.24 0.58,-0.07 1.18,-0.14 1.69,-0.21 0.25,-0.04 0.48,-0.08 0.67,-0.12 0.2,-0.05 0.35,-0.08 0.55,-0.22 0.2,-0.14 0.28,-0.28 0.38,-0.45 0.11,-0.17 0.22,-0.37 0.33,-0.6 0.23,-0.45 0.49,-1 0.75,-1.52 0.26,-0.53 0.52,-1.04 0.74,-1.39 0.07,-0.12 0.13,-0.18 0.18,-0.25l0 0z"/>
 </g>
</svg>
