<?xml version="1.0" encoding="UTF-8"?>
<!DOCTYPE svg PUBLIC "-//W3C//DTD SVG 1.1//EN" "http://www.w3.org/Graphics/SVG/1.1/DTD/svg11.dtd">
<!-- Creator: CorelDRAW 2019 (64 Bit) -->
<svg xmlns="http://www.w3.org/2000/svg" xml:space="preserve" width="19.05mm" height="10.5833mm" version="1.1" style="shape-rendering:geometricPrecision; text-rendering:geometricPrecision; image-rendering:optimizeQuality; fill-rule:evenodd; clip-rule:evenodd"
viewBox="0 0 72.23 40.13"
 xmlns:xlink="http://www.w3.org/1999/xlink">
 <defs>
  <style type="text/css">
   <![CDATA[
    .fil1 {fill:#585858;fill-rule:nonzero}
    .fil0 {fill:#A5A5A5;fill-rule:nonzero}
   ]]>
  </style>
 </defs>
 <g id="Camada_x0020_1">
  <metadata id="CorelCorpID_0Corel-Layer"/>
  <g id="_1543169504912">
   <path class="fil0" d="M2.67 20.06c0,-0.79 0.08,-1.57 0.23,-2.35 0.15,-0.78 0.38,-1.53 0.69,-2.26 0.3,-0.73 0.67,-1.42 1.11,-2.08 0.44,-0.66 0.94,-1.27 1.5,-1.82 0.56,-0.56 1.17,-1.06 1.82,-1.5 0.66,-0.44 1.35,-0.81 2.08,-1.11 0.73,-0.3 1.48,-0.53 2.26,-0.68 0.78,-0.15 1.56,-0.23 2.35,-0.23l45.48 0c0.79,0 1.57,0.08 2.35,0.23 0.78,0.15 1.53,0.38 2.26,0.68 0.73,0.3 1.42,0.67 2.08,1.11 0.66,0.44 1.27,0.94 1.82,1.5 0.56,0.56 1.06,1.17 1.5,1.82 0.44,0.66 0.81,1.35 1.11,2.08 0.3,0.73 0.53,1.48 0.69,2.26 0.15,0.78 0.23,1.56 0.23,2.35 0,0.79 -0.08,1.57 -0.23,2.35 -0.15,0.78 -0.38,1.53 -0.69,2.26 -0.3,0.73 -0.67,1.42 -1.11,2.08 -0.44,0.66 -0.94,1.27 -1.5,1.82 -0.56,0.56 -1.17,1.06 -1.82,1.5 -0.66,0.44 -1.35,0.81 -2.08,1.11 -0.73,0.3 -1.48,0.53 -2.26,0.68 -0.78,0.15 -1.56,0.23 -2.35,0.23l-45.48 0c-0.79,0 -1.57,-0.08 -2.35,-0.23 -0.78,-0.15 -1.53,-0.38 -2.26,-0.68 -0.73,-0.3 -1.42,-0.67 -2.08,-1.11 -0.66,-0.44 -1.27,-0.94 -1.82,-1.5 -0.56,-0.56 -1.06,-1.17 -1.5,-1.82 -0.44,-0.66 -0.81,-1.35 -1.11,-2.08 -0.3,-0.73 -0.53,-1.48 -0.69,-2.26 -0.15,-0.78 -0.23,-1.56 -0.23,-2.35z"/>
   <path class="fil1" d="M20.06 0c1.32,0 2.62,0.13 3.91,0.39 1.29,0.26 2.55,0.64 3.76,1.14 1.22,0.5 2.37,1.12 3.47,1.85 1.1,0.73 2.11,1.56 3.04,2.5 0.93,0.93 1.76,1.95 2.5,3.04 0.73,1.1 1.35,2.25 1.85,3.47 0.5,1.22 0.88,2.47 1.14,3.76 0.26,1.29 0.39,2.6 0.39,3.91 0,1.32 -0.13,2.62 -0.39,3.91 -0.26,1.29 -0.64,2.55 -1.14,3.76 -0.5,1.22 -1.12,2.37 -1.85,3.47 -0.73,1.1 -1.56,2.11 -2.5,3.04 -0.93,0.93 -1.95,1.76 -3.04,2.5 -1.1,0.73 -2.25,1.35 -3.47,1.85 -1.22,0.5 -2.47,0.88 -3.76,1.14 -1.29,0.26 -2.6,0.39 -3.91,0.39 -1.32,0 -2.62,-0.13 -3.91,-0.39 -1.29,-0.26 -2.55,-0.64 -3.76,-1.14 -1.22,-0.5 -2.37,-1.12 -3.47,-1.85 -1.1,-0.73 -2.11,-1.56 -3.04,-2.5 -0.93,-0.93 -1.76,-1.95 -2.5,-3.04 -0.73,-1.1 -1.35,-2.25 -1.85,-3.47 -0.5,-1.22 -0.88,-2.47 -1.14,-3.76 -0.26,-1.29 -0.39,-2.6 -0.39,-3.91 0,-1.32 0.13,-2.62 0.39,-3.91 0.26,-1.29 0.64,-2.55 1.14,-3.76 0.5,-1.22 1.12,-2.37 1.85,-3.47 0.73,-1.1 1.56,-2.11 2.5,-3.04 0.93,-0.93 1.95,-1.76 3.04,-2.5 1.1,-0.73 2.25,-1.35 3.47,-1.85 1.22,-0.5 2.47,-0.88 3.76,-1.14 1.29,-0.26 2.6,-0.39 3.91,-0.39z"/>
  </g>
 </g>
</svg>
