<?xml version="1.0" encoding="UTF-8"?>
<!DOCTYPE svg PUBLIC "-//W3C//DTD SVG 1.1//EN" "http://www.w3.org/Graphics/SVG/1.1/DTD/svg11.dtd">
<!-- Creator: CorelDRAW 2019 (64 Bit) -->
<svg xmlns="http://www.w3.org/2000/svg" xml:space="preserve" width="6.3663mm" height="7.7955mm" version="1.1" style="shape-rendering:geometricPrecision; text-rendering:geometricPrecision; image-rendering:optimizeQuality; fill-rule:evenodd; clip-rule:evenodd"
viewBox="0 0 9.12 11.17"
 xmlns:xlink="http://www.w3.org/1999/xlink">
 <defs>
  <style type="text/css">
   <![CDATA[
    .fil0 {fill:#00CF9E;fill-rule:nonzero}
   ]]>
  </style>
 </defs>
 <g id="Camada_x0020_1">
  <metadata id="CorelCorpID_0Corel-Layer"/>
  <path class="fil0" d="M4.84 3.59c1.21,-0.49 2.98,-1.47 3.93,-2.23 0.02,0.16 -0.02,-0.84 0.35,8.68 0.02,0.35 -0.44,0.88 -0.7,1.14l-3.58 -7.59zm-4.31 5.86c-0.16,-0.12 -0.26,-0.3 -0.26,-0.49l-0.28 -7.42c0.84,0.61 4.58,1.14 7.21,0.49 -0.72,0.47 -1.68,0.98 -2.65,1.33l-0.16 0.05 3.03 6.42c-1.12,0.31 -2.24,0.44 -3.25,0.44 -1.6,0 -2.94,-0.33 -3.64,-0.81zm-0.42 -8.24c0.33,-0.63 2.21,-1.21 4.28,-1.21 1.14,-0.02 3.72,0.16 4.26,1.02 -0.74,0.77 -2.91,0.95 -3.98,0.98 -2.47,0 -4.38,-0.47 -4.56,-0.79zm2.51 -0.14c0,0.26 0.81,0.47 1.82,0.47 1,0 1.81,-0.21 1.81,-0.47 0,-0.26 -0.81,-0.47 -1.81,-0.47 -1.02,0 -1.84,0.21 -1.82,0.47z"/>
 </g>
</svg>
