<?xml version="1.0" encoding="UTF-8"?>
<!DOCTYPE svg PUBLIC "-//W3C//DTD SVG 1.1//EN" "http://www.w3.org/Graphics/SVG/1.1/DTD/svg11.dtd">
<!-- Creator: CorelDRAW 2019 (64 Bit) -->
<svg xmlns="http://www.w3.org/2000/svg" xml:space="preserve" width="22.0959mm" height="13.7971mm" version="1.1" style="shape-rendering:geometricPrecision; text-rendering:geometricPrecision; image-rendering:optimizeQuality; fill-rule:evenodd; clip-rule:evenodd"
viewBox="0 0 217.39 135.74"
 xmlns:xlink="http://www.w3.org/1999/xlink">
 <defs>
  <style type="text/css">
   <![CDATA[
    .fil0 {fill:#21C25E;fill-rule:nonzero}
   ]]>
  </style>
 </defs>
 <g id="Camada_x0020_1">
  <metadata id="CorelCorpID_0Corel-Layer"/>
  <g id="_1543077158816">
   <path class="fil0" d="M-0 123.29c0,-4.12 1.08,-7.3 3.23,-9.54 2.15,-2.24 5.31,-3.36 9.49,-3.36 2.65,0 5.09,0.41 7.33,1.22l0 4.5c-2.16,-0.89 -4.48,-1.34 -6.95,-1.34 -2.77,0 -4.78,0.69 -6.01,2.08 -1.23,1.39 -1.85,3.53 -1.85,6.43 0,2.72 0.66,4.75 1.97,6.09 1.31,1.34 3.3,2 5.97,2 2.49,0 4.8,-0.43 6.91,-1.3l0 4.54c-2.27,0.74 -4.71,1.11 -7.33,1.11 -4.07,0 -7.22,-1.1 -9.43,-3.3 -2.21,-2.2 -3.32,-5.25 -3.32,-9.14z"/>
   <path class="fil0" d="M21.19 126.31c0,-3.05 0.81,-5.39 2.42,-7.01 1.62,-1.62 4.08,-2.42 7.39,-2.42 3.31,0 5.78,0.81 7.41,2.42 1.63,1.62 2.44,3.95 2.44,7.01 0,6.29 -3.28,9.43 -9.85,9.43 -6.54,0 -9.81,-3.14 -9.81,-9.43zm14.43 0c0,-1.83 -0.35,-3.13 -1.05,-3.89 -0.7,-0.76 -1.89,-1.15 -3.57,-1.15 -1.65,0 -2.83,0.38 -3.53,1.15 -0.7,0.76 -1.05,2.06 -1.05,3.89 0,1.83 0.35,3.13 1.05,3.89 0.7,0.76 1.88,1.15 3.53,1.15 1.68,0 2.87,-0.38 3.57,-1.15 0.7,-0.76 1.05,-2.06 1.05,-3.89zm8.82 -9.05l4.77 0 0.19 1.76c1.88,-1.43 3.94,-2.14 6.18,-2.14 1.22,0 2.19,0.18 2.9,0.55 0.71,0.37 1.27,0.92 1.68,1.66 0.92,-0.71 1.92,-1.26 3,-1.64 1.08,-0.38 2.32,-0.57 3.72,-0.57 2.09,0 3.63,0.54 4.62,1.62 0.99,1.08 1.49,2.73 1.49,4.94l0 11.91 -5.08 0 0 -11.34c0,-1.17 -0.25,-2.02 -0.76,-2.56 -0.51,-0.53 -1.32,-0.8 -2.44,-0.8 -0.71,0 -1.41,0.15 -2.08,0.44 -0.67,0.29 -1.25,0.69 -1.74,1.2 0.13,0.43 0.19,0.96 0.19,1.57l0 11.49 -4.81 0 0 -11.34c0,-1.17 -0.2,-2.02 -0.61,-2.56 -0.41,-0.53 -1.13,-0.8 -2.18,-0.8 -1.3,0 -2.62,0.65 -3.97,1.95l0 12.75 -5.08 0 0 -18.1zm32.57 11.34l0 -11.34 5.15 0 0 11.22c0,1.2 0.29,2.07 0.86,2.63 0.57,0.56 1.46,0.84 2.65,0.84 0.86,0 1.67,-0.17 2.42,-0.52 0.75,-0.34 1.41,-0.79 1.97,-1.35l0 -12.83 5.15 0 0 18.1 -4.77 0 -0.19 -1.72c-1.76,1.4 -3.88,2.1 -6.38,2.1 -2.19,0 -3.88,-0.61 -5.08,-1.83 -1.2,-1.22 -1.79,-2.99 -1.79,-5.31zm22.6 -11.34l4.77 0 0.19 1.72c0.81,-0.61 1.78,-1.11 2.9,-1.51 1.12,-0.39 2.28,-0.59 3.47,-0.59 2.37,0 4.1,0.55 5.21,1.66 1.11,1.11 1.66,2.84 1.66,5.21l0 11.61 -5.15 0 0 -11.34c0,-1.25 -0.25,-2.12 -0.76,-2.62 -0.51,-0.5 -1.43,-0.74 -2.75,-0.74 -0.79,0 -1.58,0.17 -2.37,0.52 -0.79,0.34 -1.46,0.79 -2.02,1.35l0 12.83 -5.15 0 0 -18.1zm24.7 -7.37l5.61 0 0 4.05 -5.61 0 0 -4.05zm0.42 11.19l-2.71 0 0.46 -3.82 7.41 0 0 18.1 -5.15 0 0 -14.28zm8.78 5.76c0,-2.09 0.39,-3.88 1.16,-5.38 0.78,-1.5 1.82,-2.64 3.13,-3.42 1.31,-0.78 2.78,-1.16 4.41,-1.16 1.99,0 3.68,0.46 5.08,1.37l0 -8.63 5.15 0 0 25.73 -4.43 0 -0.31 -1.68c-0.79,0.69 -1.65,1.2 -2.6,1.55 -0.94,0.34 -2.04,0.52 -3.28,0.52 -2.57,0 -4.6,-0.71 -6.09,-2.12 -1.49,-1.41 -2.23,-3.67 -2.23,-6.78zm13.78 3.47l0 -8.25c-1.07,-0.94 -2.32,-1.41 -3.74,-1.41 -1.58,0 -2.77,0.52 -3.59,1.57 -0.81,1.04 -1.22,2.58 -1.22,4.62 0,1.86 0.38,3.17 1.13,3.95 0.75,0.78 1.88,1.16 3.38,1.16 0.84,0 1.58,-0.13 2.21,-0.38 0.64,-0.25 1.25,-0.67 1.83,-1.26z"/>
   <path class="fil0" d="M155.84 130.13c0,-1.81 0.64,-3.24 1.93,-4.3 1.28,-1.06 3.14,-1.58 5.55,-1.58l5.34 0 0 -0.5c0,-0.76 -0.13,-1.36 -0.4,-1.79 -0.27,-0.43 -0.74,-0.75 -1.41,-0.95 -0.67,-0.2 -1.64,-0.3 -2.88,-0.3 -2.06,0 -4.05,0.32 -5.96,0.95l0 -3.63c0.89,-0.36 1.94,-0.64 3.15,-0.84 1.21,-0.2 2.5,-0.3 3.88,-0.3 5.7,0 8.55,2.33 8.55,6.99l0 11.49 -4.47 0 -0.27 -1.64c-1.48,1.35 -3.67,2.02 -6.57,2.02 -1.83,0 -3.37,-0.49 -4.6,-1.47 -1.23,-0.98 -1.85,-2.36 -1.85,-4.14zm12.83 0.19l0 -2.86 -5.23 0c-2.01,0 -3.02,0.83 -3.02,2.48 0,1.6 1.1,2.4 3.28,2.4 1.09,0 2.07,-0.18 2.92,-0.55 0.85,-0.37 1.53,-0.86 2.04,-1.47z"/>
   <path class="fil0" d="M176.99 126.84c0,-2.09 0.39,-3.88 1.16,-5.38 0.78,-1.5 1.82,-2.64 3.13,-3.42 1.31,-0.78 2.78,-1.16 4.41,-1.16 1.99,0 3.68,0.46 5.08,1.37l0 -8.63 5.15 0 0 25.73 -4.43 0 -0.31 -1.68c-0.79,0.69 -1.65,1.2 -2.6,1.55 -0.94,0.34 -2.04,0.52 -3.28,0.52 -2.57,0 -4.6,-0.71 -6.09,-2.12 -1.49,-1.41 -2.23,-3.67 -2.23,-6.78zm13.78 3.47l0 -8.25c-1.07,-0.94 -2.32,-1.41 -3.74,-1.41 -1.58,0 -2.77,0.52 -3.59,1.57 -0.81,1.04 -1.22,2.58 -1.22,4.62 0,1.86 0.38,3.17 1.13,3.95 0.75,0.78 1.88,1.16 3.38,1.16 0.84,0 1.58,-0.13 2.21,-0.38 0.64,-0.25 1.25,-0.67 1.83,-1.26z"/>
   <path class="fil0" d="M199.52 126.27c0,-2.95 0.78,-5.26 2.35,-6.91 1.57,-1.65 3.85,-2.48 6.85,-2.48 2.75,0 4.88,0.72 6.39,2.16 1.51,1.44 2.27,3.37 2.27,5.78l0 3.28 -13.09 0c0.25,1.4 0.9,2.38 1.93,2.94 1.03,0.56 2.55,0.84 4.56,0.84 0.97,0 1.95,-0.09 2.96,-0.27 1.01,-0.18 1.86,-0.41 2.58,-0.69l0 3.66c-1.68,0.76 -3.88,1.15 -6.6,1.15 -3.21,0 -5.71,-0.8 -7.5,-2.39 -1.79,-1.59 -2.69,-3.95 -2.69,-7.08zm13.36 -1.34l0 -0.99c0,-2.24 -1.34,-3.36 -4.01,-3.36 -1.68,0 -2.86,0.34 -3.55,1.01 -0.69,0.67 -1.03,1.79 -1.03,3.34l8.59 0z"/>
   <path class="fil0" d="M103.79 87.4c-1.42,0 -2.7,-1.44 -2.7,-2.86 0,-14.59 9.59,-26.96 22.74,-31.33 -5.69,-3.59 -9.6,-10 -9.6,-17.18 0,-11.05 8.99,-20.04 20.05,-20.04 11.05,0 20.05,8.99 20.05,20.04 0,7.18 -3.91,13.59 -9.6,17.18 13.11,4.37 22.57,16.74 22.57,31.33 0.02,1.42 -1.27,2.86 -2.69,2.86 -1.42,0 -59.39,0 -60.81,0zm-7.55 -15.98l-40.38 0c-1.38,0 -2.69,-1.39 -2.69,-2.86 0,-14.22 9.14,-26.81 22.74,-31.33 -5.92,-3.74 -9.6,-10.33 -9.6,-17.18 0,-11.05 8.99,-20.04 20.04,-20.04 11.05,0 20.05,8.99 20.05,20.04 0,6.86 -3.68,13.44 -9.6,17.18 7.3,2.44 13.56,7.39 17.63,13.95 -8.69,3.87 -15.32,11.25 -18.18,20.24l0 0 -0 0zm38.04 -55.45l0 0c0,0 -0,0 -0,0 -0,0 -0,0 -0,0z"/>
  </g>
 </g>
</svg>
