<?xml version="1.0" encoding="UTF-8"?>
<!DOCTYPE svg PUBLIC "-//W3C//DTD SVG 1.1//EN" "http://www.w3.org/Graphics/SVG/1.1/DTD/svg11.dtd">
<!-- Creator: CorelDRAW 2019 (64 Bit) -->
<svg xmlns="http://www.w3.org/2000/svg" xml:space="preserve" width="7.5371mm" height="7.7445mm" version="1.1" style="shape-rendering:geometricPrecision; text-rendering:geometricPrecision; image-rendering:optimizeQuality; fill-rule:evenodd; clip-rule:evenodd"
viewBox="0 0 13.56 13.93"
 xmlns:xlink="http://www.w3.org/1999/xlink">
 <defs>
  <style type="text/css">
   <![CDATA[
    .fil0 {fill:#00CF9E;fill-rule:nonzero}
   ]]>
  </style>
 </defs>
 <g id="Camada_x0020_1">
  <metadata id="CorelCorpID_0Corel-Layer"/>
  <path class="fil0" d="M7.48 13.84l-6.94 -7.7 0.12 -0.06c0.96,-0.47 1.92,-0.75 2.88,-0.85 1.84,-0.19 3.43,0.34 4.46,1.49 1.52,1.69 1.54,4.45 0.06,7.05l-0.01 0.02 -0.02 0.02c-0.09,0.07 -0.19,0.12 -0.29,0.13 -0.01,0 -0.03,0 -0.04,0 -0.09,0 -0.16,-0.03 -0.22,-0.09zm1.42 -1c0.38,-0.9 0.6,-1.8 0.64,-2.68l0 -0.11 0.11 0.01c0.37,0.02 0.74,0.01 1.13,-0.03 0.53,-0.05 1.07,-0.17 1.62,-0.34l0.29 -0.09 -3.91 3.52 0.12 -0.28zm0.7 -3.18l-0.05 -0 -0 -0.05c-0.05,-1.26 -0.47,-2.36 -1.21,-3.19 -0.76,-0.84 -1.81,-1.37 -3.04,-1.55l-0.05 -0.01 0 -0.05c0.02,-1.3 0.46,-2.67 1.25,-3.96l0.07 -0.11 6.93 7.69c0.06,0.07 0.08,0.16 0.06,0.27 -0.02,0.08 -0.06,0.16 -0.13,0.24l-0.02 0.02 -0.03 0.01c-0.84,0.36 -1.68,0.59 -2.51,0.68 -0.24,0.03 -0.49,0.04 -0.73,0.04 -0.18,0 -0.37,-0.01 -0.54,-0.02zm-9.27 -3.85c-0.1,-0.17 -0.18,-0.35 -0.23,-0.56l-0.04 -0.16 1.35 0.29 -0.25 0.11c-0.24,0.1 -0.49,0.21 -0.72,0.33l-0.07 0.03 -0.03 -0.05zm1.45 -1.48c-0.03,-0.03 -0.03,-0.07 -0.01,-0.11 0.02,-0.05 0.06,-0.09 0.11,-0.11l0.12 -0.06 0.01 -0c0.31,-0.15 0.74,-0.32 1.23,-0.37 0.12,-0.01 0.25,-0.02 0.37,-0.02 0.45,0.01 0.89,0.14 1.3,0.39l0.03 0.02 -0.01 0.04c-0.03,0.19 -0.05,0.39 -0.06,0.61l-0 0.11 -0.11 -0.01c-0.36,-0.02 -0.74,-0.01 -1.12,0.03 -0.38,0.04 -0.76,0.11 -1.14,0.2l-0.04 0.01 -0.65 -0.73zm-1.77 0.34l-0 -0.04c-0.02,-0.6 0.14,-1.24 0.46,-1.85l0.07 -0.13 1.11 1.23 -0.06 0.06c-0.08,0.08 -0.14,0.17 -0.18,0.27 -0.06,0.17 -0.04,0.33 0.05,0.43l0.2 0.23 -0.11 0.14 -1.54 -0.33zm0.5 -2.71c-0.03,-0.04 -0.03,-0.09 0.01,-0.15 0.04,-0.06 0.1,-0.09 0.14,-0.09l0.01 -0 0.02 0 0.31 -0.01c0.03,-0 0.07,0.01 0.09,0.04l0.45 0.5c0.01,0.02 0.03,0.03 0.05,0.04l1.41 1.06 -0.2 0.05c-0.24,0.06 -0.47,0.14 -0.69,0.24l-0.05 0.02 -1.53 -1.7zm4.39 1.59c-0.26,-0.13 -0.55,-0.21 -0.87,-0.25l-0.09 -0.01 0.05 -0.09c0.37,-0.68 0.77,-1.11 1.27,-1.38l0.09 -0.05 0.06 0.5 -0.01 0.02c-0.15,0.4 -0.28,0.79 -0.37,1.17l-0.03 0.13 -0.1 -0.05zm-3.04 -1.6l-0.43 -0.49 0.19 -0.18c0.34,-0.3 0.69,-0.55 1.08,-0.75l0.11 -0.06 -0.01 0.43c-0,0.1 0.03,0.19 0.09,0.26l1.17 1.31 -0.04 0.06c-0.14,0.19 -0.26,0.39 -0.38,0.62l-0.06 0.11 -1.72 -1.29zm1.35 -1.09c-0.01,-0.02 -0.02,-0.04 -0.02,-0.06l0.01 -0.54c-0,-0.05 0.04,-0.12 0.1,-0.15 0.03,-0.02 0.05,-0.02 0.07,-0.03 0.03,-0 0.06,0.01 0.09,0.03l1.4 1.56 -0.09 0.06c-0.12,0.09 -0.23,0.19 -0.36,0.31l-0.07 0.07 -1.14 -1.26zm2.36 -0.74l0.15 0.06c0.19,0.07 0.38,0.18 0.54,0.3l0.05 0.03 -0.04 0.06c-0.15,0.23 -0.28,0.46 -0.42,0.71l-0.13 0.25 -0.15 -1.41zm-1.58 -0.07l0.2 -0.02c0.02,-0 0.04,-0 0.06,-0.01 0.02,-0 0.04,-0.01 0.07,-0.01 0.28,-0.03 0.54,-0.02 0.8,0.01l0.04 0.01 0.13 1.19 -0.16 0.09 -1.14 -1.26z"/>
 </g>
</svg>
