<?xml version="1.0" encoding="UTF-8"?>
<!DOCTYPE svg PUBLIC "-//W3C//DTD SVG 1.1//EN" "http://www.w3.org/Graphics/SVG/1.1/DTD/svg11.dtd">
<!-- Creator: CorelDRAW 2019 (64 Bit) -->
<svg xmlns="http://www.w3.org/2000/svg" xml:space="preserve" width="7.8715mm" height="6.5777mm" version="1.1" style="shape-rendering:geometricPrecision; text-rendering:geometricPrecision; image-rendering:optimizeQuality; fill-rule:evenodd; clip-rule:evenodd"
viewBox="0 0 15.74 13.15"
 xmlns:xlink="http://www.w3.org/1999/xlink">
 <defs>
  <style type="text/css">
   <![CDATA[
    .fil0 {fill:#00CF9E;fill-rule:nonzero}
   ]]>
  </style>
 </defs>
 <g id="Camada_x0020_1">
  <metadata id="CorelCorpID_0Corel-Layer"/>
  <path class="fil0" d="M14.31 4.69c-3.56,-3.56 -9.32,-3.56 -12.88,0l-1.43 -1.43c4.35,-4.35 11.39,-4.35 15.74,0l-1.43 1.43 0 0zm-0.72 0.72l-1.43 1.43c-2.37,-2.37 -6.21,-2.37 -8.58,0l-1.43 -1.43c3.16,-3.16 8.29,-3.16 11.45,0l0 0zm-2.15 2.15l-1.43 1.43c-1.18,-1.19 -3.11,-1.19 -4.29,0l-1.43 -1.43c1.97,-1.98 5.18,-1.98 7.15,0l0 0zm-3.58 1.55c1.12,0 2.02,0.91 2.02,2.02 0,1.12 -0.91,2.02 -2.02,2.02 -1.12,0 -2.02,-0.91 -2.02,-2.02 0,-1.12 0.91,-2.02 2.02,-2.02z"/>
 </g>
</svg>
