<?xml version="1.0" encoding="UTF-8"?>
<!DOCTYPE svg PUBLIC "-//W3C//DTD SVG 1.1//EN" "http://www.w3.org/Graphics/SVG/1.1/DTD/svg11.dtd">
<!-- Creator: CorelDRAW 2019 (64 Bit) -->
<svg xmlns="http://www.w3.org/2000/svg" xml:space="preserve" width="7.0547mm" height="9.7097mm" version="1.1" style="shape-rendering:geometricPrecision; text-rendering:geometricPrecision; image-rendering:optimizeQuality; fill-rule:evenodd; clip-rule:evenodd"
viewBox="0 0 13.48 18.56"
 xmlns:xlink="http://www.w3.org/1999/xlink">
 <defs>
  <style type="text/css">
   <![CDATA[
    .fil0 {fill:#00CF9E;fill-rule:nonzero}
   ]]>
  </style>
 </defs>
 <g id="Camada_x0020_1">
  <metadata id="CorelCorpID_0Corel-Layer"/>
  <path class="fil0" d="M12 18.27l0 -0.58c0,-0.17 0.15,-0.29 0.29,-0.29 0.17,0 0.29,0.15 0.29,0.29l0 0.58c0,0.17 -0.14,0.29 -0.29,0.29 -0.17,0 -0.29,-0.12 -0.29,-0.29zm-1.59 0l0 -0.58c0,-0.17 0.15,-0.29 0.29,-0.29 0.17,0 0.29,0.15 0.29,0.29l0 0.58c0,0.17 -0.14,0.29 -0.29,0.29 -0.17,0 -0.29,-0.12 -0.29,-0.29zm-1.59 0l0 -0.58c0,-0.17 0.15,-0.29 0.29,-0.29 0.17,0 0.29,0.15 0.29,0.29l0 0.58c0,0.17 -0.14,0.29 -0.29,0.29 -0.17,0 -0.29,-0.12 -0.29,-0.29zm-1.59 0l0 -0.58c0,-0.17 0.14,-0.29 0.29,-0.29 0.17,0 0.29,0.15 0.29,0.29l0 0.58c0,0.17 -0.14,0.29 -0.29,0.29 -0.15,0 -0.29,-0.12 -0.29,-0.29zm-1.59 0l0 -0.58c0,-0.17 0.14,-0.29 0.29,-0.29 0.17,0 0.29,0.15 0.29,0.29l0 0.58c0,0.17 -0.14,0.29 -0.29,0.29 -0.15,0 -0.29,-0.12 -0.29,-0.29zm-1.59 0l0 -0.58c0,-0.17 0.14,-0.29 0.29,-0.29 0.17,0 0.29,0.15 0.29,0.29l0 0.58c0,0.17 -0.15,0.29 -0.29,0.29 -0.15,0 -0.29,-0.12 -0.29,-0.29zm-1.59 0l0 -0.58c0,-0.17 0.14,-0.29 0.29,-0.29 0.17,0 0.29,0.15 0.29,0.29l0 0.58c0,0.17 -0.14,0.29 -0.29,0.29 -0.14,0 -0.29,-0.12 -0.29,-0.29zm8.76 -2.09l0 -0.58c0,-0.17 0.15,-0.29 0.29,-0.29 0.17,0 0.29,0.14 0.29,0.29l0 0.58c0,0.17 -0.14,0.29 -0.29,0.29 -0.14,0 -0.26,-0.14 -0.29,-0.29zm-1.59 0l0 -0.58c0,-0.17 0.14,-0.29 0.29,-0.29 0.17,0 0.29,0.14 0.29,0.29l0 0.58c0,0.17 -0.14,0.29 -0.29,0.29 -0.15,0 -0.26,-0.14 -0.29,-0.29zm-1.59 0l0 -0.58c0,-0.17 0.14,-0.29 0.29,-0.29 0.17,0 0.29,0.14 0.29,0.29l0 0.58c0,0.17 -0.14,0.29 -0.29,0.29 -0.15,0 -0.26,-0.14 -0.29,-0.29zm-1.59 0l0 -0.58c0,-0.17 0.14,-0.29 0.29,-0.29 0.17,0 0.29,0.14 0.29,0.29l0 0.58c0,0.17 -0.14,0.29 -0.29,0.29 -0.15,0 -0.26,-0.14 -0.29,-0.29zm-1.57 0l0 -0.58c0,-0.17 0.14,-0.29 0.29,-0.29 0.17,0 0.29,0.14 0.29,0.29l0 0.58c0,0.17 -0.14,0.29 -0.29,0.29 -0.17,0 -0.29,-0.14 -0.29,-0.29zm-1.59 0l0 -0.58c0,-0.17 0.14,-0.29 0.29,-0.29 0.17,0 0.29,0.14 0.29,0.29l0 0.58c0,0.17 -0.14,0.29 -0.29,0.29 -0.17,0 -0.29,-0.14 -0.29,-0.29zm8.76 -2.12l0 -0.58c0,-0.17 0.15,-0.29 0.29,-0.29 0.17,0 0.29,0.15 0.29,0.29l0 0.58c0,0.17 -0.14,0.29 -0.29,0.29 -0.17,0 -0.29,-0.12 -0.29,-0.29zm-1.59 0l0 -0.58c0,-0.17 0.15,-0.29 0.29,-0.29 0.17,0 0.29,0.15 0.29,0.29l0 0.58c0,0.17 -0.14,0.29 -0.29,0.29 -0.17,0 -0.29,-0.12 -0.29,-0.29zm-1.59 0l0 -0.58c0,-0.17 0.14,-0.29 0.29,-0.29 0.17,0 0.29,0.15 0.29,0.29l0 0.58c0,0.17 -0.14,0.29 -0.29,0.29 -0.17,0 -0.29,-0.12 -0.29,-0.29zm-1.59 0l0 -0.58c0,-0.17 0.14,-0.29 0.29,-0.29 0.17,0 0.29,0.15 0.29,0.29l0 0.58c0,0.17 -0.14,0.29 -0.29,0.29 -0.15,0 -0.29,-0.12 -0.29,-0.29zm-1.59 0l0 -0.58c0,-0.17 0.14,-0.29 0.29,-0.29 0.17,0 0.29,0.15 0.29,0.29l0 0.58c0,0.17 -0.14,0.29 -0.29,0.29 -0.15,0 -0.29,-0.12 -0.29,-0.29zm-1.59 0l0 -0.58c0,-0.17 0.14,-0.29 0.29,-0.29 0.17,0 0.29,0.15 0.29,0.29l0 0.58c0,0.17 -0.15,0.29 -0.29,0.29 -0.14,0 -0.29,-0.12 -0.29,-0.29zm-1.59 0l0 -0.58c0,-0.17 0.14,-0.29 0.29,-0.29 0.17,0 0.29,0.15 0.29,0.29l0 0.58c0,0.17 -0.14,0.29 -0.29,0.29 -0.14,0 -0.29,-0.12 -0.29,-0.29zm-0.41 -2.23c-0.29,0 -0.49,-0.23 -0.49,-0.49 0,-0.26 0.23,-0.46 0.49,-0.49l10.96 0c0.29,0 0.49,0.23 0.49,0.49 0,0.29 -0.23,0.49 -0.49,0.49l-10.96 0zm0.41 -1.54c0.14,-2.78 2.35,-5.02 5.07,-5.02 2.7,0 4.93,2.23 5.07,5.02l-10.15 0zm5.36 -5.54c-0.12,0 -0.2,0 -0.29,0 -0.12,0 -0.2,0 -0.29,0l-0.29 0.03 0 -3.22c0,-0.23 -0.17,-0.41 -0.41,-0.41l-6.52 0 0 -1.16 6.52 0c0.87,0 1.57,0.7 1.57,1.57l0 3.22 -0.29 -0.03z"/>
 </g>
</svg>
