<?xml version="1.0" encoding="UTF-8"?>
<!DOCTYPE svg PUBLIC "-//W3C//DTD SVG 1.1//EN" "http://www.w3.org/Graphics/SVG/1.1/DTD/svg11.dtd">
<!-- Creator: CorelDRAW 2019 (64 Bit) -->
<svg xmlns="http://www.w3.org/2000/svg" xml:space="preserve" width="6.674mm" height="6.6795mm" version="1.1" style="shape-rendering:geometricPrecision; text-rendering:geometricPrecision; image-rendering:optimizeQuality; fill-rule:evenodd; clip-rule:evenodd"
viewBox="0 0 12.98 12.99"
 xmlns:xlink="http://www.w3.org/1999/xlink">
 <defs>
  <style type="text/css">
   <![CDATA[
    .fil0 {fill:#00CF9E}
   ]]>
  </style>
 </defs>
 <g id="Camada_x0020_1">
  <metadata id="CorelCorpID_0Corel-Layer"/>
  <path class="fil0" d="M1.92 0c0.05,0 0.1,0.02 0.14,0.06l1.43 1.43 1.29 1.29c0.17,0.17 0.22,0.43 0.13,0.66l-0.26 0.62 8.21 7.75c0.08,0.08 0.13,0.18 0.13,0.29 0,0.11 -0.04,0.22 -0.12,0.3l-0.49 0.49c-0.07,0.07 -0.18,0.12 -0.28,0.11 -0.11,-0 -0.21,-0.05 -0.28,-0.12l-7.77 -8.23 -0.62 0.26c-0.22,0.09 -0.48,0.04 -0.66,-0.13l-0.43 -0.43 -0.86 -0.86 -1.29 -1.29 -0.14 -0.14c-0.08,-0.08 -0.08,-0.21 0,-0.29 0.08,-0.08 0.21,-0.08 0.29,0l0.14 0.14 1.29 1.29 0.86 0.86c0.08,0.08 0.21,0.08 0.29,0 0.08,-0.08 0.08,-0.21 0,-0.29l-0.86 -0.86 -0 0 -1.43 -1.43c-0.08,-0.08 -0.08,-0.21 0,-0.29 0.08,-0.08 0.21,-0.08 0.29,0l1.43 1.43 0.86 0.86c0.08,0.08 0.21,0.08 0.29,0 0.08,-0.08 0.08,-0.21 0,-0.29l-0.86 -0.86 -1.43 -1.43c-0.08,-0.08 -0.08,-0.21 0,-0.29 0.08,-0.08 0.21,-0.08 0.29,0l1.43 1.43 0.86 0.86c0.08,0.08 0.21,0.08 0.29,0 0.08,-0.08 0.08,-0.21 0,-0.29l-0.86 -0.86 -1.43 -1.43c-0.08,-0.08 -0.08,-0.21 0,-0.29 0.04,-0.04 0.09,-0.06 0.14,-0.06l0 -0 0 -0zm9.96 0.68c0.31,-0 0.63,0.03 0.96,0.1l-5.38 5.38 -1.47 -1.39 2.42 -2.42c1.04,-1.04 2.14,-1.66 3.47,-1.67l0 -0zm-6.6 5.85l0.88 0.93 -4.74 4.74c-0.16,0.16 -0.41,0.16 -0.57,0l-0.57 -0.57c-0.16,-0.16 -0.15,-0.41 0.01,-0.56l5 -4.54z"/>
 </g>
</svg>
