<?xml version="1.0" encoding="UTF-8"?>
<!DOCTYPE svg PUBLIC "-//W3C//DTD SVG 1.1//EN" "http://www.w3.org/Graphics/SVG/1.1/DTD/svg11.dtd">
<!-- Creator: CorelDRAW 2019 (64 Bit) -->
<svg xmlns="http://www.w3.org/2000/svg" xml:space="preserve" width="8.4671mm" height="8.467mm" version="1.1" style="shape-rendering:geometricPrecision; text-rendering:geometricPrecision; image-rendering:optimizeQuality; fill-rule:evenodd; clip-rule:evenodd"
viewBox="0 0 26.28 26.28"
 xmlns:xlink="http://www.w3.org/1999/xlink">
 <defs>
  <style type="text/css">
   <![CDATA[
    .fil0 {fill:#CB0000;fill-rule:nonzero}
   ]]>
  </style>
 </defs>
 <g id="Camada_x0020_1">
  <metadata id="CorelCorpID_0Corel-Layer"/>
  <path class="fil0" d="M13.14 26.28c-3.51,0 -6.81,-1.37 -9.29,-3.85 -2.48,-2.48 -3.85,-5.78 -3.85,-9.29 0,-3.51 1.37,-6.81 3.85,-9.29 2.48,-2.48 5.78,-3.85 9.29,-3.85 3.51,0 6.81,1.37 9.29,3.85 2.48,2.48 3.85,5.78 3.85,9.29 0,3.51 -1.37,6.81 -3.85,9.29 -2.48,2.48 -5.78,3.85 -9.29,3.85zm0.08 -10.02l4.18 4.05 0.17 -0.13 2.79 -2.71 -4.2 -4.06 4.2 -4.06 -2.96 -2.83 -4.18 4.05 -4.18 -4.04 -2.96 2.83 4.2 4.06 -4.2 4.06 2.79 2.71 0.17 0.13 4.18 -4.05z"/>
 </g>
</svg>
