<?xml version="1.0" encoding="UTF-8"?>
<!DOCTYPE svg PUBLIC "-//W3C//DTD SVG 1.1//EN" "http://www.w3.org/Graphics/SVG/1.1/DTD/svg11.dtd">
<!-- Creator: CorelDRAW 2019 (64 Bit) -->
<svg xmlns="http://www.w3.org/2000/svg" xml:space="preserve" width="15.1695mm" height="15.1694mm" version="1.1" style="shape-rendering:geometricPrecision; text-rendering:geometricPrecision; image-rendering:optimizeQuality; fill-rule:evenodd; clip-rule:evenodd"
viewBox="0 0 93.09 93.09"
 xmlns:xlink="http://www.w3.org/1999/xlink">
 <defs>
  <style type="text/css">
   <![CDATA[
    .fil0 {fill:#21C25E;fill-rule:nonzero}
    .fil1 {fill:white;fill-rule:nonzero}
   ]]>
  </style>
 </defs>
 <g id="Camada_x0020_1">
  <metadata id="CorelCorpID_0Corel-Layer"/>
  <g id="_1543165430944">
   <path class="fil0" d="M46.55 0c1.52,0 3.05,0.07 4.56,0.22 1.52,0.15 3.02,0.37 4.52,0.67 1.49,0.3 2.97,0.67 4.43,1.11 1.46,0.44 2.89,0.96 4.3,1.54 1.41,0.58 2.78,1.23 4.13,1.95 1.34,0.72 2.65,1.5 3.92,2.35 1.27,0.85 2.49,1.75 3.67,2.72 1.18,0.97 2.31,1.99 3.38,3.07 1.08,1.08 2.1,2.21 3.07,3.38 0.97,1.18 1.87,2.4 2.72,3.67 0.85,1.27 1.63,2.57 2.35,3.92 0.72,1.34 1.37,2.72 1.95,4.13 0.58,1.41 1.1,2.84 1.54,4.3 0.44,1.46 0.81,2.94 1.11,4.43 0.3,1.49 0.52,3 0.67,4.52 0.15,1.52 0.22,3.04 0.22,4.56 0,1.52 -0.07,3.05 -0.22,4.56 -0.15,1.52 -0.37,3.02 -0.67,4.52 -0.3,1.49 -0.67,2.97 -1.11,4.43 -0.44,1.46 -0.96,2.89 -1.54,4.3 -0.58,1.41 -1.23,2.78 -1.95,4.13 -0.72,1.34 -1.5,2.65 -2.35,3.92 -0.85,1.27 -1.75,2.49 -2.72,3.67 -0.97,1.18 -1.99,2.31 -3.07,3.38 -1.08,1.08 -2.21,2.1 -3.38,3.07 -1.18,0.97 -2.4,1.87 -3.67,2.72 -1.27,0.85 -2.57,1.63 -3.92,2.35 -1.34,0.72 -2.72,1.37 -4.13,1.95 -1.41,0.58 -2.84,1.1 -4.3,1.54 -1.46,0.44 -2.94,0.81 -4.43,1.11 -1.5,0.3 -3,0.52 -4.52,0.67 -1.52,0.15 -3.04,0.22 -4.56,0.22 -1.52,0 -3.05,-0.07 -4.56,-0.22 -1.52,-0.15 -3.02,-0.37 -4.52,-0.67 -1.5,-0.3 -2.97,-0.67 -4.43,-1.11 -1.46,-0.44 -2.89,-0.96 -4.3,-1.54 -1.41,-0.58 -2.78,-1.23 -4.13,-1.95 -1.34,-0.72 -2.65,-1.5 -3.92,-2.35 -1.27,-0.85 -2.49,-1.75 -3.67,-2.72 -1.18,-0.97 -2.31,-1.99 -3.38,-3.07 -1.08,-1.08 -2.1,-2.21 -3.07,-3.38 -0.97,-1.18 -1.87,-2.4 -2.72,-3.67 -0.85,-1.27 -1.63,-2.57 -2.35,-3.92 -0.72,-1.34 -1.37,-2.72 -1.95,-4.13 -0.58,-1.41 -1.1,-2.84 -1.54,-4.3 -0.44,-1.46 -0.81,-2.94 -1.11,-4.43 -0.3,-1.5 -0.52,-3 -0.67,-4.52 -0.15,-1.52 -0.22,-3.04 -0.22,-4.56 0,-1.52 0.07,-3.05 0.22,-4.56 0.15,-1.52 0.37,-3.02 0.67,-4.52 0.3,-1.5 0.67,-2.97 1.11,-4.43 0.44,-1.46 0.96,-2.89 1.54,-4.3 0.58,-1.41 1.23,-2.78 1.95,-4.13 0.72,-1.34 1.5,-2.65 2.35,-3.92 0.85,-1.27 1.75,-2.49 2.72,-3.67 0.97,-1.18 1.99,-2.31 3.07,-3.38 1.08,-1.08 2.21,-2.1 3.38,-3.07 1.18,-0.97 2.4,-1.87 3.67,-2.72 1.27,-0.85 2.57,-1.63 3.92,-2.35 1.34,-0.72 2.72,-1.37 4.13,-1.95 1.41,-0.58 2.84,-1.1 4.3,-1.54 1.46,-0.44 2.94,-0.81 4.43,-1.11 1.49,-0.3 3,-0.52 4.52,-0.67 1.52,-0.15 3.04,-0.22 4.56,-0.22z"/>
   <path class="fil1" d="M34.08 71.9c3.27,0 5.94,-2.67 5.94,-5.94l0 -35.64c0,-3.27 -2.67,-5.94 -5.94,-5.94 -3.27,0 -5.94,2.67 -5.94,5.94l0 35.64c0,3.27 2.67,5.94 5.94,5.94zm23.76 0c3.27,0 5.94,-2.67 5.94,-5.94l0 -35.64c0,-3.27 -2.67,-5.94 -5.94,-5.94 -3.27,0 -5.94,2.67 -5.94,5.94l0 35.64c0,3.27 2.67,5.94 5.94,5.94z"/>
  </g>
 </g>
</svg>
