<?xml version="1.0" encoding="UTF-8"?>
<!DOCTYPE svg PUBLIC "-//W3C//DTD SVG 1.1//EN" "http://www.w3.org/Graphics/SVG/1.1/DTD/svg11.dtd">
<!-- Creator: CorelDRAW 2019 (64 Bit) -->
<svg xmlns="http://www.w3.org/2000/svg" xml:space="preserve" width="15.1695mm" height="15.1695mm" version="1.1" style="shape-rendering:geometricPrecision; text-rendering:geometricPrecision; image-rendering:optimizeQuality; fill-rule:evenodd; clip-rule:evenodd"
viewBox="0 0 110.06 110.06"
 xmlns:xlink="http://www.w3.org/1999/xlink">
 <defs>
  <style type="text/css">
   <![CDATA[
    .fil0 {fill:#21C25E;fill-rule:nonzero}
    .fil1 {fill:white;fill-rule:nonzero}
   ]]>
  </style>
 </defs>
 <g id="Camada_x0020_1">
  <metadata id="CorelCorpID_0Corel-Layer"/>
  <g id="_1543077924160">
   <path class="fil0" d="M55.03 0c1.8,0 3.6,0.09 5.39,0.27 1.79,0.18 3.57,0.44 5.34,0.79 1.77,0.35 3.51,0.79 5.24,1.31 1.72,0.52 3.42,1.13 5.08,1.82 1.67,0.69 3.29,1.46 4.88,2.31 1.59,0.85 3.13,1.78 4.63,2.78 1.5,1 2.94,2.07 4.34,3.22 1.39,1.14 2.73,2.35 4,3.63 1.27,1.27 2.48,2.61 3.63,4 1.14,1.39 2.22,2.84 3.22,4.34 1,1.5 1.93,3.04 2.78,4.63 0.85,1.59 1.62,3.22 2.31,4.88 0.69,1.67 1.3,3.36 1.82,5.08 0.52,1.72 0.96,3.47 1.31,5.24 0.35,1.77 0.62,3.55 0.79,5.34 0.18,1.79 0.26,3.59 0.26,5.39 0,1.8 -0.09,3.6 -0.26,5.39 -0.18,1.79 -0.44,3.57 -0.79,5.34 -0.35,1.77 -0.79,3.51 -1.31,5.24 -0.52,1.72 -1.13,3.42 -1.82,5.08 -0.69,1.67 -1.46,3.29 -2.31,4.88 -0.85,1.59 -1.78,3.13 -2.78,4.63 -1,1.5 -2.07,2.94 -3.22,4.34 -1.14,1.39 -2.35,2.73 -3.63,4 -1.27,1.27 -2.61,2.48 -4,3.63 -1.39,1.14 -2.84,2.22 -4.34,3.22 -1.5,1 -3.04,1.93 -4.63,2.78 -1.59,0.85 -3.22,1.62 -4.88,2.31 -1.67,0.69 -3.36,1.3 -5.08,1.82 -1.72,0.52 -3.47,0.96 -5.24,1.31 -1.77,0.35 -3.55,0.62 -5.34,0.79 -1.79,0.18 -3.59,0.26 -5.39,0.26 -1.8,0 -3.6,-0.09 -5.39,-0.26 -1.79,-0.18 -3.57,-0.44 -5.34,-0.79 -1.77,-0.35 -3.51,-0.79 -5.24,-1.31 -1.72,-0.52 -3.42,-1.13 -5.08,-1.82 -1.67,-0.69 -3.29,-1.46 -4.88,-2.31 -1.59,-0.85 -3.13,-1.78 -4.63,-2.78 -1.5,-1 -2.94,-2.07 -4.34,-3.22 -1.39,-1.14 -2.73,-2.35 -4,-3.63 -1.27,-1.27 -2.48,-2.61 -3.63,-4 -1.14,-1.39 -2.22,-2.84 -3.22,-4.34 -1,-1.5 -1.93,-3.04 -2.78,-4.63 -0.85,-1.59 -1.62,-3.22 -2.31,-4.88 -0.69,-1.67 -1.3,-3.36 -1.82,-5.08 -0.52,-1.72 -0.96,-3.47 -1.31,-5.24 -0.35,-1.77 -0.62,-3.55 -0.79,-5.34 -0.18,-1.79 -0.27,-3.59 -0.27,-5.39 0,-1.8 0.09,-3.6 0.27,-5.39 0.18,-1.79 0.44,-3.57 0.79,-5.34 0.35,-1.77 0.79,-3.51 1.31,-5.24 0.52,-1.72 1.13,-3.42 1.82,-5.08 0.69,-1.67 1.46,-3.29 2.31,-4.88 0.85,-1.59 1.78,-3.13 2.78,-4.63 1,-1.5 2.07,-2.94 3.22,-4.34 1.14,-1.39 2.35,-2.73 3.63,-4 1.27,-1.27 2.61,-2.48 4,-3.63 1.39,-1.14 2.84,-2.22 4.34,-3.22 1.5,-1 3.04,-1.93 4.63,-2.78 1.59,-0.85 3.22,-1.62 4.88,-2.31 1.67,-0.69 3.36,-1.3 5.08,-1.82 1.73,-0.52 3.47,-0.96 5.24,-1.31 1.77,-0.35 3.55,-0.62 5.34,-0.79 1.79,-0.18 3.59,-0.27 5.39,-0.27z"/>
   <path class="fil1" d="M36.91 76.27l0 -43.16c0,-3.17 3.44,-5.14 6.17,-3.54l36.99 21.58c2.71,1.58 2.71,5.51 0,7.09l-36.99 21.58c-2.74,1.6 -6.17,-0.38 -6.17,-3.54z"/>
  </g>
 </g>
</svg>
