<?xml version="1.0" encoding="UTF-8"?>
<!DOCTYPE svg PUBLIC "-//W3C//DTD SVG 1.1//EN" "http://www.w3.org/Graphics/SVG/1.1/DTD/svg11.dtd">
<!-- Creator: CorelDRAW 2019 (64 Bit) -->
<svg xmlns="http://www.w3.org/2000/svg" xml:space="preserve" width="7.7611mm" height="6.3551mm" version="1.1" style="shape-rendering:geometricPrecision; text-rendering:geometricPrecision; image-rendering:optimizeQuality; fill-rule:evenodd; clip-rule:evenodd"
viewBox="0 0 35.29 28.9"
 xmlns:xlink="http://www.w3.org/1999/xlink">
 <defs>
  <style type="text/css">
   <![CDATA[
    .fil0 {fill:white;fill-rule:nonzero}
   ]]>
  </style>
 </defs>
 <g id="Camada_x0020_1">
  <metadata id="CorelCorpID_0Corel-Layer"/>
  <path class="fil0" d="M27.72 8.64c-0.56,-0.69 -1.57,-0.8 -2.26,-0.24 -0.69,0.56 -0.8,1.57 -0.24,2.26 1.66,2.26 1.66,5.34 0,7.6 -0.39,0.48 -0.47,1.14 -0.2,1.7 0.27,0.56 0.83,0.91 1.45,0.91 0.49,0 0.95,-0.22 1.25,-0.59 2.62,-3.44 2.62,-8.21 0,-11.65l0 0z"/>
  <path class="fil0" d="M29.9 3.6c-0.68,-0.57 -1.69,-0.47 -2.26,0.21 -0.57,0.68 -0.47,1.69 0.21,2.26 2.61,2.01 4.16,5.1 4.24,8.39 -0.07,3.29 -1.63,6.38 -4.24,8.39 -0.33,0.27 -0.53,0.66 -0.57,1.09 -0.04,0.42 0.09,0.85 0.37,1.17 0.31,0.37 0.76,0.58 1.24,0.58 0.37,0 0.74,-0.13 1.03,-0.37 3.35,-2.62 5.33,-6.61 5.39,-10.86 -0.06,-4.25 -2.04,-8.24 -5.39,-10.86l0 0zm-8.29 -3.39c-0.5,-0.29 -1.11,-0.29 -1.6,0l-10.38 7.14 -8.02 0c-0.89,0 -1.6,0.72 -1.6,1.6l0 11.01c0,0.89 0.72,1.6 1.6,1.6l8.02 0 10.28 7.06c0.28,0.18 0.61,0.28 0.95,0.27 0.89,0 1.6,-0.72 1.6,-1.6l0 -25.67c-0,-0.59 -0.33,-1.13 -0.85,-1.41l0 0z"/>
 </g>
</svg>
