<?xml version="1.0" encoding="UTF-8"?>
<!DOCTYPE svg PUBLIC "-//W3C//DTD SVG 1.1//EN" "http://www.w3.org/Graphics/SVG/1.1/DTD/svg11.dtd">
<!-- Creator: CorelDRAW 2019 (64 Bit) -->
<svg xmlns="http://www.w3.org/2000/svg" xml:space="preserve" width="25.7528mm" height="25.7528mm" version="1.1" style="shape-rendering:geometricPrecision; text-rendering:geometricPrecision; image-rendering:optimizeQuality; fill-rule:evenodd; clip-rule:evenodd"
viewBox="0 0 391.66 391.66"
 xmlns:xlink="http://www.w3.org/1999/xlink">
 <defs>
  <style type="text/css">
   <![CDATA[
    .fil0 {fill:#009B3B;fill-rule:nonzero}
    .fil1 {fill:#FEFEFE;fill-rule:nonzero}
    .fil2 {fill:white;fill-rule:nonzero}
   ]]>
  </style>
 </defs>
 <g id="Camada_x0020_1">
  <metadata id="CorelCorpID_0Corel-Layer"/>
  <g id="_1543074121664">
   <path class="fil0" d="M195.83 0c6.41,0 12.81,0.31 19.19,0.94 6.38,0.63 12.72,1.57 19.01,2.82 6.29,1.25 12.5,2.81 18.64,4.67 6.14,1.86 12.17,4.02 18.09,6.47 5.93,2.45 11.72,5.19 17.37,8.22 5.66,3.02 11.15,6.32 16.48,9.88 5.33,3.56 10.48,7.38 15.43,11.45 4.96,4.07 9.7,8.37 14.24,12.91 4.54,4.54 8.84,9.28 12.91,14.24 4.07,4.96 7.89,10.1 11.45,15.43 3.56,5.33 6.86,10.83 9.88,16.48 3.02,5.66 5.76,11.45 8.22,17.37 2.45,5.93 4.61,11.96 6.47,18.09 1.86,6.14 3.42,12.35 4.67,18.64 1.25,6.29 2.19,12.63 2.82,19.01 0.63,6.38 0.94,12.78 0.94,19.19 0,6.41 -0.31,12.81 -0.94,19.19 -0.63,6.38 -1.57,12.72 -2.82,19.01 -1.25,6.29 -2.81,12.5 -4.67,18.64 -1.86,6.14 -4.02,12.17 -6.47,18.09 -2.45,5.93 -5.19,11.72 -8.22,17.37 -3.02,5.66 -6.32,11.15 -9.88,16.48 -3.56,5.33 -7.38,10.48 -11.45,15.44 -4.07,4.96 -8.37,9.7 -12.91,14.24 -4.54,4.54 -9.28,8.84 -14.24,12.91 -4.96,4.07 -10.1,7.89 -15.43,11.45 -5.33,3.56 -10.83,6.86 -16.48,9.88 -5.66,3.02 -11.45,5.76 -17.37,8.22 -5.93,2.45 -11.96,4.61 -18.09,6.47 -6.14,1.86 -12.35,3.42 -18.64,4.67 -6.29,1.25 -12.63,2.19 -19.01,2.82 -6.38,0.63 -12.78,0.94 -19.19,0.94 -6.41,-0 -12.81,-0.31 -19.19,-0.94 -6.38,-0.63 -12.72,-1.57 -19.01,-2.82 -6.29,-1.25 -12.5,-2.81 -18.64,-4.67 -6.14,-1.86 -12.17,-4.02 -18.09,-6.47 -5.93,-2.45 -11.72,-5.19 -17.37,-8.22 -5.66,-3.02 -11.15,-6.32 -16.48,-9.88 -5.33,-3.56 -10.48,-7.38 -15.44,-11.45 -4.96,-4.07 -9.7,-8.37 -14.24,-12.91 -4.54,-4.54 -8.84,-9.28 -12.91,-14.24 -4.07,-4.96 -7.89,-10.1 -11.45,-15.44 -3.56,-5.33 -6.86,-10.83 -9.88,-16.48 -3.02,-5.66 -5.76,-11.45 -8.22,-17.37 -2.45,-5.93 -4.61,-11.96 -6.47,-18.09 -1.86,-6.14 -3.42,-12.35 -4.67,-18.64 -1.25,-6.29 -2.19,-12.63 -2.82,-19.01 -0.63,-6.38 -0.94,-12.78 -0.94,-19.19 0,-6.41 0.31,-12.81 0.94,-19.19 0.63,-6.38 1.57,-12.72 2.82,-19.01 1.25,-6.29 2.81,-12.5 4.67,-18.64 1.86,-6.14 4.02,-12.17 6.47,-18.09 2.45,-5.93 5.19,-11.72 8.22,-17.37 3.02,-5.66 6.32,-11.15 9.88,-16.48 3.56,-5.33 7.38,-10.48 11.45,-15.43 4.07,-4.96 8.37,-9.7 12.91,-14.24 4.54,-4.54 9.28,-8.84 14.24,-12.91 4.96,-4.07 10.1,-7.89 15.44,-11.45 5.33,-3.56 10.83,-6.86 16.48,-9.88 5.66,-3.02 11.45,-5.76 17.37,-8.22 5.93,-2.45 11.96,-4.61 18.09,-6.47 6.14,-1.86 12.35,-3.42 18.64,-4.67 6.29,-1.25 12.63,-2.19 19.01,-2.82 6.38,-0.63 12.78,-0.94 19.19,-0.94z"/>
   <path class="fil1" d="M186.83 284.35l0 -63.94c6.33,-15.12 24.83,-19.54 35.39,-19.54l31.92 0 0 28.97 74.63 -56.36 -74.63 -56.35 0 28.97 -31.92 0c-16.89,0 -28.37,5.32 -35.39,13.9l0 -48.52 29.73 0 -57.83 -74.63 -57.83 74.63 29.73 0 0 172.87 56.21 0 -0.01 0z"/>
   <path class="fil2" d="M137.08 310.73l18.24 0c4.25,0 7.43,1.12 9.53,3.36 2.1,2.24 3.16,5.37 3.16,9.38 0,2.56 -0.66,4.76 -1.98,6.61 -1.32,1.85 -3.18,3.19 -5.58,4.01 0.59,0.51 1.07,1.05 1.45,1.62 0.37,0.57 0.78,1.37 1.21,2.39l4.6 10.62 -8.26 0 -4.48 -10.21c-0.39,-0.9 -0.84,-1.53 -1.33,-1.86 -0.49,-0.33 -1.27,-0.5 -2.33,-0.5l-6.26 0 0 12.57 -7.97 0 0 -38.01zm16.17 18.83c2.16,0 3.82,-0.48 4.96,-1.45 1.14,-0.96 1.71,-2.51 1.71,-4.63 0,-2.12 -0.51,-3.68 -1.53,-4.66 -1.02,-0.98 -2.58,-1.48 -4.66,-1.48l-8.67 0 0 12.22 8.2 0z"/>
   <path class="fil2" d="M169.72 334.75c0,-4.72 1.25,-8.33 3.75,-10.83 2.5,-2.5 6.31,-3.75 11.42,-3.75 5.11,0 8.93,1.25 11.45,3.75 2.52,2.5 3.78,6.11 3.78,10.83 0,9.72 -5.08,14.58 -15.23,14.58 -10.11,0 -15.17,-4.86 -15.17,-14.58zm22.31 0c0,-2.83 -0.54,-4.84 -1.62,-6.02 -1.08,-1.18 -2.92,-1.77 -5.52,-1.77 -2.56,0 -4.38,0.59 -5.46,1.77 -1.08,1.18 -1.62,3.19 -1.62,6.02 0,2.83 0.54,4.84 1.62,6.02 1.08,1.18 2.9,1.77 5.46,1.77 2.6,0 4.44,-0.59 5.52,-1.77 1.08,-1.18 1.62,-3.19 1.62,-6.02z"/>
   <path class="fil2" d="M205.19 339.88l0 -12.98 -3.95 0 0 -6.14 3.95 0 0 -6.02 7.97 -2.36 0 8.38 7.08 0 -0.47 6.14 -6.61 0 0 12.45c0,1.49 0.35,2.54 1.03,3.13 0.69,0.59 1.8,0.89 3.33,0.89 1.1,0 2.24,-0.2 3.42,-0.59l0 5.49c-1.77,0.71 -3.86,1.06 -6.26,1.06 -3.19,0 -5.57,-0.83 -7.14,-2.48 -1.57,-1.65 -2.36,-3.97 -2.36,-6.96z"/>
   <path class="fil2" d="M222.06 340.65c0,-2.79 0.99,-5.01 2.98,-6.64 1.99,-1.63 4.85,-2.45 8.59,-2.45l8.26 0 0 -0.77c0,-1.18 -0.21,-2.1 -0.62,-2.77 -0.41,-0.67 -1.14,-1.16 -2.18,-1.48 -1.04,-0.31 -2.53,-0.47 -4.46,-0.47 -3.19,0 -6.26,0.49 -9.21,1.48l0 -5.61c1.38,-0.55 3,-0.98 4.87,-1.3 1.87,-0.31 3.87,-0.47 5.99,-0.47 8.81,0 13.22,3.6 13.22,10.8l0 17.76 -6.9 0 -0.41 -2.54c-2.28,2.09 -5.67,3.13 -10.15,3.13 -2.83,0 -5.2,-0.76 -7.11,-2.27 -1.91,-1.51 -2.86,-3.65 -2.86,-6.4zm19.83 0.3l0 -4.43 -8.08 0c-3.11,0 -4.66,1.28 -4.66,3.84 0,2.48 1.69,3.72 5.08,3.72 1.69,0 3.2,-0.29 4.51,-0.86 1.32,-0.57 2.37,-1.33 3.16,-2.27z"/>
  </g>
 </g>
</svg>
