<?xml version="1.0" encoding="UTF-8"?>
<!DOCTYPE svg PUBLIC "-//W3C//DTD SVG 1.1//EN" "http://www.w3.org/Graphics/SVG/1.1/DTD/svg11.dtd">
<!-- Creator: CorelDRAW 2019 (64 Bit) -->
<svg xmlns="http://www.w3.org/2000/svg" xml:space="preserve" width="7.7611mm" height="6.3551mm" version="1.1" style="shape-rendering:geometricPrecision; text-rendering:geometricPrecision; image-rendering:optimizeQuality; fill-rule:evenodd; clip-rule:evenodd"
viewBox="0 0 40.29 32.99"
 xmlns:xlink="http://www.w3.org/1999/xlink">
 <defs>
  <style type="text/css">
   <![CDATA[
    .fil0 {fill:white;fill-rule:nonzero}
   ]]>
  </style>
 </defs>
 <g id="Camada_x0020_1">
  <metadata id="CorelCorpID_0Corel-Layer"/>
  <path class="fil0" d="M29.14 20.31l2.64 2.64c2.85,-3.92 2.8,-9.23 -0.13,-13.1 -0.64,-0.79 -1.79,-0.91 -2.58,-0.27 -0.79,0.64 -0.91,1.79 -0.27,2.58 1.76,2.39 1.9,5.61 0.35,8.15l-0 0z"/>
  <path class="fil0" d="M36.63 16.5c-0.04,2.99 -1.2,5.86 -3.26,8.04l2.6 2.6c2.74,-2.87 4.29,-6.67 4.32,-10.64 -0.07,-4.85 -2.33,-9.41 -6.15,-12.4 -0.78,-0.65 -1.93,-0.54 -2.58,0.24 -0.65,0.78 -0.54,1.93 0.24,2.58 2.97,2.3 4.75,5.82 4.83,9.58zm-10.99 0.31l0 -14.96c0.01,-0.68 -0.37,-1.31 -0.97,-1.63 -0.61,-0.32 -1.34,-0.28 -1.9,0.11l-8.11 5.55 10.99 10.93zm-18.79 -8.42l-5.02 0c-1.01,0 -1.83,0.82 -1.83,1.83l0 12.56c0,1.01 0.82,1.83 1.83,1.83l9.16 0 11.74 8.06c0.32,0.21 0.7,0.32 1.08,0.31 1.01,0 1.83,-0.82 1.83,-1.83l0 -3.97 -18.79 -18.79zm-0.05 -7.84c-0.72,-0.72 -1.88,-0.72 -2.6,0 -0.72,0.72 -0.72,1.88 0,2.6l29.3 29.3c0.34,0.35 0.81,0.54 1.3,0.54 0.49,0 0.96,-0.2 1.3,-0.54 0.35,-0.34 0.54,-0.81 0.54,-1.3 0,-0.49 -0.2,-0.96 -0.54,-1.3l-29.3 -29.3z"/>
 </g>
</svg>
