<?xml version="1.0" encoding="UTF-8"?>
<!DOCTYPE svg PUBLIC "-//W3C//DTD SVG 1.1//EN" "http://www.w3.org/Graphics/SVG/1.1/DTD/svg11.dtd">
<!-- Creator: CorelDRAW 2019 (64 Bit) -->
<svg xmlns="http://www.w3.org/2000/svg" xml:space="preserve" width="5.8135mm" height="5.7806mm" version="1.1" style="shape-rendering:geometricPrecision; text-rendering:geometricPrecision; image-rendering:optimizeQuality; fill-rule:evenodd; clip-rule:evenodd"
viewBox="0 0 27.55 27.39"
 xmlns:xlink="http://www.w3.org/1999/xlink">
 <defs>
  <style type="text/css">
   <![CDATA[
    .fil0 {fill:#707070;fill-rule:nonzero}
   ]]>
  </style>
 </defs>
 <g id="Camada_x0020_1">
  <metadata id="CorelCorpID_0Corel-Layer"/>
  <path class="fil0" d="M13.77 17.16l-9.49 9.49c-0.98,0.98 -2.57,0.98 -3.55,0 -0.98,-0.98 -0.98,-2.57 0,-3.55l9.42 -9.42 -9.42 -9.42c-0.98,-0.98 -0.98,-2.57 0,-3.55 0.98,-0.98 2.57,-0.98 3.55,0l9.49 9.49 9.49 -9.49c0.98,-0.98 2.57,-0.98 3.55,0 0.98,0.98 0.98,2.57 0,3.55l-9.42 9.42 9.42 9.42c0.98,0.98 0.98,2.57 0,3.55 -0.98,0.98 -2.57,0.98 -3.55,0l-9.49 -9.49z"/>
 </g>
</svg>
