<?xml version="1.0" encoding="UTF-8"?>
<!DOCTYPE svg PUBLIC "-//W3C//DTD SVG 1.1//EN" "http://www.w3.org/Graphics/SVG/1.1/DTD/svg11.dtd">
<!-- Creator: CorelDRAW 2019 (64 Bit) -->
<svg xmlns="http://www.w3.org/2000/svg" xml:space="preserve" width="8.4666mm" height="7.4085mm" version="1.1" style="shape-rendering:geometricPrecision; text-rendering:geometricPrecision; image-rendering:optimizeQuality; fill-rule:evenodd; clip-rule:evenodd"
viewBox="0 0 101.62 88.92"
 xmlns:xlink="http://www.w3.org/1999/xlink">
 <defs>
  <style type="text/css">
   <![CDATA[
    .fil0 {fill:#707070;fill-rule:nonzero}
   ]]>
  </style>
 </defs>
 <g id="Camada_x0020_1">
  <metadata id="CorelCorpID_0Corel-Layer"/>
  <path class="fil0" d="M-0 31.76l0 50.81c0,3.51 2.84,6.35 6.35,6.35l19.05 0 0 -63.51 -19.05 0c-3.51,0 -6.35,2.84 -6.35,6.35zm89.89 -0l-18.76 0c-1.64,0 -2.46,-1.1 -2.74,-1.57 -0.28,-0.47 -0.83,-1.72 -0.04,-3.15l6.62 -11.91c1.45,-2.61 1.6,-5.67 0.41,-8.41 -1.19,-2.74 -3.53,-4.73 -6.43,-5.45l-4.66 -1.17c-1.13,-0.28 -2.34,0.08 -3.13,0.96l-25.32 28.13c-2.63,2.92 -4.07,6.69 -4.07,10.62l0 33.23c0,8.75 7.12,15.88 15.88,15.88l31.59 -0c7.13,0 13.43,-4.8 15.31,-11.68l6.78 -31.11c0.2,-0.87 0.3,-1.75 0.3,-2.64 0,-6.47 -5.26,-11.73 -11.73,-11.73l0 0z"/>
 </g>
</svg>
