<?xml version="1.0" encoding="UTF-8"?>
<!DOCTYPE svg PUBLIC "-//W3C//DTD SVG 1.1//EN" "http://www.w3.org/Graphics/SVG/1.1/DTD/svg11.dtd">
<!-- Creator: CorelDRAW 2019 (64 Bit) -->
<svg xmlns="http://www.w3.org/2000/svg" xml:space="preserve" width="146.473mm" height="146.473mm" version="1.1" style="shape-rendering:geometricPrecision; text-rendering:geometricPrecision; image-rendering:optimizeQuality; fill-rule:evenodd; clip-rule:evenodd"
viewBox="0 0 602.77 602.77"
 xmlns:xlink="http://www.w3.org/1999/xlink">
 <defs>
  <style type="text/css">
   <![CDATA[
    .fil2 {fill:#21C25E}
    .fil0 {fill:#21C25E}
    .fil3 {fill:#FEFEFE;fill-rule:nonzero}
    .fil1 {fill:white;fill-rule:nonzero}
   ]]>
  </style>
 </defs>
 <g id="Camada_x0020_1">
  <metadata id="CorelCorpID_0Corel-Layer"/>
  <polygon class="fil0" points="602.77,0 -0,0 -0,602.77 602.77,602.77 "/>
  <g id="_2104117214416">
   <path class="fil1" d="M424.67 324.1c-0.58,0.89 -1.17,1.74 -1.77,2.52 -0.59,0.77 -1.25,1.56 -1.97,2.35 -7.17,9.01 -15.17,17.75 -23.47,26.22 -8.27,8.45 -16.78,16.59 -25.06,24.46 -4.76,4.53 -9.54,9.01 -14.31,13.49 -10.06,9.44 -20.13,18.88 -30.06,28.81 -7.34,7.34 -16.99,11.01 -26.66,11.01 -9.66,0 -19.32,-3.67 -26.65,-11 -9.93,-9.93 -19.99,-19.37 -30.05,-28.8 -4.78,-4.48 -9.55,-8.96 -14.32,-13.49 -8.27,-7.87 -16.79,-16.01 -25.05,-24.45 -8.29,-8.47 -16.29,-17.21 -23.46,-26.22 -0.72,-0.8 -1.39,-1.59 -1.99,-2.37 -0.68,-0.88 -1.3,-1.77 -1.87,-2.66 -9.62,-13.11 -17,-27.52 -21.98,-42.72 -5,-15.27 -7.59,-31.34 -7.59,-47.66 0,-42.23 17.12,-80.48 44.8,-108.16 27.68,-27.68 65.92,-44.8 108.16,-44.8 42.23,0 80.48,17.12 108.16,44.8 27.68,27.68 44.8,65.92 44.8,108.16 0,16.33 -2.58,32.4 -7.59,47.67 -5,15.25 -12.41,29.71 -22.08,42.86z"/>
   <path class="fil2" d="M301.38 99.97c73.78,0 133.6,59.81 133.6,133.6 0,29.82 -9.77,57.35 -26.28,79.58 -0.7,1.16 -1.53,2.26 -2.51,3.27 -22.55,28.48 -64.91,64.91 -91.85,91.85 -7.13,7.13 -18.8,7.13 -25.93,0 -26.94,-26.94 -69.29,-63.36 -91.84,-91.84 -0.98,-1.02 -1.83,-2.13 -2.53,-3.3 -16.5,-22.22 -26.27,-49.75 -26.27,-79.56 0,-73.78 59.81,-133.6 133.6,-133.6zm-6.75 234.52l0 -51.33c5.08,-12.14 19.94,-15.69 28.41,-15.69l25.62 0 0 23.25 59.91 -45.24 -59.91 -45.24 0 23.25 -25.62 0c-13.56,0 -22.77,4.27 -28.41,11.16l0 -38.95 23.86 0 -46.43 -59.91 -46.43 59.91 23.86 0 0 138.77 45.13 0z"/>
   <path class="fil3" d="M85.94 458.88l44.71 0 0 10.16 -31.64 0 0 15.97 28.06 0 0 10.06 -28.06 0 0 16.06 31.64 0 0 10.06 -44.71 0 0 -62.32zm65.61 63.28c-3.35,0 -6.58,-0.23 -9.68,-0.68 -3.1,-0.45 -5.61,-1.06 -7.55,-1.84l0 -10.84c2.13,0.9 4.61,1.6 7.45,2.08 2.84,0.48 5.52,0.73 8.03,0.73 3.35,0 5.66,-0.21 6.92,-0.63 1.26,-0.42 1.89,-1.27 1.89,-2.56 0,-1.16 -0.58,-2.06 -1.74,-2.71 -1.16,-0.65 -3.39,-1.48 -6.68,-2.52 -0.97,-0.26 -2.19,-0.65 -3.68,-1.16 -4.52,-1.48 -7.82,-3.26 -9.92,-5.32 -2.1,-2.06 -3.14,-4.97 -3.14,-8.71 0,-4.45 1.63,-7.84 4.89,-10.16 3.26,-2.32 8.37,-3.48 15.34,-3.48 2.65,0 5.24,0.19 7.79,0.58 2.55,0.39 4.76,0.9 6.63,1.55l0 10.74c-1.68,-0.77 -3.64,-1.39 -5.9,-1.84 -2.26,-0.45 -4.39,-0.68 -6.39,-0.68 -3.1,0 -5.39,0.21 -6.87,0.63 -1.48,0.42 -2.23,1.24 -2.23,2.47 0,1.1 0.53,1.92 1.6,2.47 1.06,0.55 3.11,1.27 6.14,2.18l3.19 0.97c3.74,1.16 6.61,2.37 8.61,3.63 2,1.26 3.43,2.76 4.31,4.5 0.87,1.74 1.31,3.97 1.31,6.68 0,4.58 -1.71,8.05 -5.13,10.4 -3.42,2.35 -8.48,3.53 -15.19,3.53zm47.61 0c-5.23,0 -9.13,-1.35 -11.71,-4.06 -2.58,-2.71 -3.87,-6.52 -3.87,-11.42l0 -21.29 -6.48 0 0 -10.06 6.48 0 0 -9.87 13.06 -3.87 0 13.74 11.61 0 -0.77 10.06 -10.84 0 0 20.42c0,2.45 0.56,4.16 1.69,5.13 1.13,0.97 2.95,1.45 5.47,1.45 1.81,0 3.68,-0.32 5.61,-0.97l0 9c-2.9,1.16 -6.32,1.74 -10.26,1.74zm17.42 -46.83l12.1 0 0.58 4.74c2.13,-1.35 4.71,-2.55 7.74,-3.58 3.03,-1.03 6.03,-1.74 9,-2.13l0 9.87c-2.77,0.39 -5.74,1.05 -8.9,1.98 -3.16,0.94 -5.64,1.92 -7.45,2.95l0 32.03 -13.06 0 0 -45.87zm45.19 46.83c-4.64,0 -8.53,-1.24 -11.66,-3.73 -3.13,-2.48 -4.69,-5.98 -4.69,-10.5 0,-4.58 1.63,-8.21 4.89,-10.89 3.26,-2.68 7.95,-4.02 14.08,-4.02l13.55 0 0 -1.26c0,-1.93 -0.34,-3.45 -1.02,-4.55 -0.68,-1.1 -1.87,-1.9 -3.58,-2.42 -1.71,-0.52 -4.14,-0.77 -7.31,-0.77 -5.23,0 -10.26,0.81 -15.1,2.42l0 -9.19c2.26,-0.9 4.92,-1.61 7.98,-2.13 3.06,-0.52 6.34,-0.77 9.82,-0.77 14.45,0 21.68,5.9 21.68,17.71l0 29.13 -11.32 0 -0.68 -4.16c-3.74,3.42 -9.29,5.13 -16.64,5.13zm3.58 -8.61c2.77,0 5.24,-0.47 7.4,-1.4 2.16,-0.94 3.89,-2.18 5.18,-3.73l0 -7.26 -13.26 0c-5.1,0 -7.64,2.1 -7.64,6.29 0,4.06 2.77,6.1 8.32,6.1zm54.77 8.61c-6.52,0 -11.66,-1.79 -15.43,-5.37 -3.77,-3.58 -5.66,-9.31 -5.66,-17.18 0,-5.29 0.98,-9.84 2.95,-13.64 1.97,-3.81 4.61,-6.69 7.93,-8.66 3.32,-1.97 7.05,-2.95 11.18,-2.95 5.03,0 9.32,1.16 12.87,3.48l0 -21.87 13.06 0 0 65.22 -11.23 0 -0.77 -4.26c-2,1.74 -4.19,3.05 -6.58,3.92 -2.39,0.87 -5.16,1.31 -8.32,1.31zm3.58 -9.58c2.13,0 4,-0.32 5.61,-0.97 1.61,-0.64 3.16,-1.71 4.64,-3.19l0 -20.9c-2.71,-2.39 -5.87,-3.58 -9.48,-3.58 -4,0 -7.03,1.32 -9.1,3.97 -2.06,2.64 -3.1,6.55 -3.1,11.71 0,4.71 0.95,8.05 2.85,10.02 1.9,1.97 4.76,2.95 8.56,2.95zm58.25 9.58c-8.13,0 -14.47,-2.02 -19.01,-6.05 -4.55,-4.03 -6.82,-10.02 -6.82,-17.95 0,-7.48 1.98,-13.32 5.95,-17.51 3.97,-4.19 9.76,-6.29 17.37,-6.29 6.97,0 12.37,1.82 16.21,5.47 3.84,3.64 5.76,8.53 5.76,14.66l0 8.32 -33.19 0c0.64,3.55 2.27,6.03 4.89,7.45 2.61,1.42 6.47,2.13 11.56,2.13 2.45,0 4.95,-0.23 7.5,-0.68 2.55,-0.45 4.73,-1.03 6.53,-1.74l0 9.29c-4.26,1.94 -9.84,2.9 -16.74,2.9zm8.03 -27.38l0 -2.52c0,-5.68 -3.39,-8.52 -10.16,-8.52 -4.26,0 -7.26,0.85 -9,2.56 -1.74,1.71 -2.61,4.53 -2.61,8.47l21.77 0zm21.48 -38.13l14.22 0 0 10.26 -14.22 0 0 -10.26zm1.06 28.35l-6.87 0 1.16 -9.68 18.77 0 0 45.87 -13.06 0 0 -36.19zm24.19 -9.68l12.1 0 0.58 4.74c2.13,-1.35 4.71,-2.55 7.74,-3.58 3.03,-1.03 6.03,-1.74 9,-2.13l0 9.87c-2.77,0.39 -5.74,1.05 -8.9,1.98 -3.16,0.94 -5.64,1.92 -7.45,2.95l0 32.03 -13.06 0 0 -45.87zm55.16 46.83c-16.58,0 -24.87,-7.97 -24.87,-23.9 0,-7.74 2.05,-13.66 6.14,-17.76 4.1,-4.1 10.34,-6.14 18.72,-6.14 8.39,0 14.64,2.05 18.77,6.14 4.13,4.1 6.19,10.02 6.19,17.76 0,15.93 -8.32,23.9 -24.97,23.9zm0 -11.13c4.26,0 7.27,-0.97 9.05,-2.9 1.77,-1.94 2.66,-5.23 2.66,-9.87 0,-4.64 -0.89,-7.93 -2.66,-9.87 -1.77,-1.94 -4.79,-2.9 -9.05,-2.9 -4.19,0 -7.18,0.97 -8.95,2.9 -1.77,1.93 -2.66,5.23 -2.66,9.87 0,4.64 0.89,7.93 2.66,9.87 1.77,1.94 4.76,2.9 8.95,2.9z"/>
  </g>
 </g>
</svg>
