<?xml version="1.0" encoding="UTF-8"?>
<!DOCTYPE svg PUBLIC "-//W3C//DTD SVG 1.1//EN" "http://www.w3.org/Graphics/SVG/1.1/DTD/svg11.dtd">
<!-- Creator: CorelDRAW 2019 (64 Bit) -->
<svg xmlns="http://www.w3.org/2000/svg" xml:space="preserve" width="15.5071mm" height="15.5057mm" version="1.1" style="shape-rendering:geometricPrecision; text-rendering:geometricPrecision; image-rendering:optimizeQuality; fill-rule:evenodd; clip-rule:evenodd"
viewBox="0 0 14.89 14.89"
 xmlns:xlink="http://www.w3.org/1999/xlink">
 <defs>
  <style type="text/css">
   <![CDATA[
    .fil0 {fill:#DFC100}
    .fil2 {fill:white}
    .fil3 {fill:black}
    .fil1 {fill:white;fill-rule:nonzero}
   ]]>
  </style>
 </defs>
 <g id="Camada_x0020_1">
  <metadata id="CorelCorpID_0Corel-Layer"/>
  <g id="_2465090419216">
   <path class="fil0" d="M3.83 1.73c3.16,-2 7.34,-1.06 9.34,2.1 2,3.16 1.06,7.34 -2.1,9.34 -3.16,2 -7.34,1.06 -9.34,-2.1 -2,-3.16 -1.06,-7.34 2.1,-9.34z"/>
   <path class="fil1" d="M7.44 0.68c-1.24,0 -2.49,0.34 -3.61,1.05 -3.16,2 -4.1,6.18 -2.1,9.34 1.29,2.04 3.48,3.15 5.73,3.15 1.24,0 2.49,-0.34 3.61,-1.05 3.16,-2 4.1,-6.18 2.1,-9.34 -1.29,-2.04 -3.48,-3.15 -5.73,-3.15zm0 -0.68c1.23,0 2.46,0.31 3.54,0.89 1.12,0.6 2.07,1.49 2.76,2.57 0.54,0.85 0.89,1.78 1.05,2.76 0.16,0.95 0.13,1.91 -0.08,2.85 -0.21,0.94 -0.6,1.82 -1.15,2.61 -0.57,0.82 -1.29,1.51 -2.14,2.04 -1.19,0.76 -2.57,1.15 -3.98,1.15 -1.23,0 -2.46,-0.31 -3.54,-0.89 -1.12,-0.6 -2.07,-1.49 -2.76,-2.57 -0.54,-0.85 -0.89,-1.78 -1.05,-2.76 -0.16,-0.95 -0.13,-1.91 0.08,-2.85 0.21,-0.94 0.6,-1.82 1.15,-2.61 0.57,-0.82 1.29,-1.51 2.14,-2.04 1.19,-0.76 2.57,-1.15 3.98,-1.15z"/>
   <path class="fil2" d="M4.55 2.82c2.53,-1.6 5.88,-0.85 7.49,1.68 1.6,2.53 0.85,5.88 -1.68,7.49 -2.53,1.6 -5.88,0.85 -7.49,-1.68 -1.6,-2.53 -0.85,-5.88 1.68,-7.49z"/>
   <path class="fil3" d="M4.91 3.93c0.03,0 0.06,0.01 0.08,0.03l0.78 0.78 0.7 0.7c0.09,0.09 0.12,0.24 0.07,0.36l-0.14 0.34 4.48 4.23c0.04,0.04 0.07,0.1 0.07,0.16 0,0.06 -0.02,0.12 -0.07,0.16l-0.27 0.27c-0.04,0.04 -0.1,0.06 -0.15,0.06 -0.06,-0 -0.11,-0.02 -0.15,-0.07l-4.24 -4.49 -0.34 0.14c-0.12,0.05 -0.26,0.02 -0.36,-0.07l-0.23 -0.23 -0.47 -0.47 -0.7 -0.7 -0.08 -0.08c-0.04,-0.04 -0.04,-0.11 0,-0.16 0.04,-0.04 0.11,-0.04 0.16,0l0.08 0.08 0.7 0.7 0.47 0.47c0.04,0.04 0.11,0.04 0.16,0 0.04,-0.04 0.04,-0.11 0,-0.16l-0.47 -0.47 -0 0 -0.78 -0.78c-0.04,-0.04 -0.04,-0.11 0,-0.16 0.04,-0.04 0.11,-0.04 0.16,0l0.78 0.78 0.47 0.47c0.04,0.04 0.11,0.04 0.16,0 0.04,-0.04 0.04,-0.11 0,-0.16l-0.47 -0.47 -0.78 -0.78c-0.04,-0.04 -0.04,-0.11 0,-0.16 0.04,-0.04 0.11,-0.04 0.16,0l0.78 0.78 0.47 0.47c0.04,0.04 0.11,0.04 0.16,0 0.04,-0.04 0.04,-0.11 0,-0.16l-0.47 -0.47 -0.78 -0.78c-0.04,-0.04 -0.04,-0.11 0,-0.16 0.02,-0.02 0.05,-0.03 0.08,-0.03l0 -0 0 -0zm5.43 0.37c0.17,-0 0.34,0.02 0.52,0.05l-2.93 2.93 -0.8 -0.76 1.32 -1.32c0.57,-0.57 1.17,-0.91 1.89,-0.91l0 -0zm-3.6 3.19l0.48 0.51 -2.59 2.59c-0.09,0.09 -0.23,0.09 -0.31,0l-0.31 -0.31c-0.08,-0.08 -0.08,-0.22 0.01,-0.3l2.73 -2.48z"/>
  </g>
 </g>
</svg>
