<?xml version="1.0" encoding="UTF-8"?>
<!DOCTYPE svg PUBLIC "-//W3C//DTD SVG 1.1//EN" "http://www.w3.org/Graphics/SVG/1.1/DTD/svg11.dtd">
<!-- Creator: CorelDRAW 2019 (64 Bit) -->
<svg xmlns="http://www.w3.org/2000/svg" xml:space="preserve" width="15.5115mm" height="19.8595mm" version="1.1" style="shape-rendering:geometricPrecision; text-rendering:geometricPrecision; image-rendering:optimizeQuality; fill-rule:evenodd; clip-rule:evenodd"
viewBox="0 0 14.43 18.47"
 xmlns:xlink="http://www.w3.org/1999/xlink">
 <defs>
  <style type="text/css">
   <![CDATA[
    .fil2 {fill:white}
    .fil0 {fill:#003194;fill-rule:nonzero}
    .fil3 {fill:#010101;fill-rule:nonzero}
    .fil1 {fill:white;fill-rule:nonzero}
   ]]>
  </style>
 </defs>
 <g id="Camada_x0020_1">
  <metadata id="CorelCorpID_0Corel-Layer"/>
  <g id="_2465091893776">
   <path class="fil0" d="M6.52 17.47l-3.78 -5.47 0 0c0,0 -2.04,-2.81 -2.08,-4.64 -0.08,-3.62 2.79,-6.62 6.41,-6.71l0 -0c3.62,-0.08 6.62,2.79 6.71,6.41 0.04,1.85 -1.89,4.75 -1.89,4.75l-3.59 5.62c-0.25,0.26 -0.58,0.38 -0.91,0.38 -0.31,0 -0.63,-0.11 -0.87,-0.34z"/>
   <path class="fil1" d="M7.39 17.82c0.33,0 0.66,-0.13 0.91,-0.38l3.59 -5.62c0,0 1.93,-2.91 1.89,-4.75 -0.08,-3.57 -3,-6.41 -6.55,-6.41 -0.05,0 -0.1,0 -0.15,0l-0 0c-3.62,0.08 -6.49,3.09 -6.41,6.71 0.04,1.84 2.08,4.64 2.08,4.64l-0 -0 3.78 5.47c0.24,0.23 0.56,0.34 0.87,0.34zm0 0.66c0,0 0,0 0,0 -0.49,0 -0.96,-0.19 -1.32,-0.52l-0.09 -0.1 -3.78 -5.47 0 -0c-0.09,-0.12 -0.57,-0.8 -1.06,-1.68 -0.74,-1.33 -1.12,-2.44 -1.14,-3.31 -0.02,-0.97 0.15,-1.92 0.5,-2.82 0.34,-0.87 0.85,-1.65 1.49,-2.33 0.65,-0.68 1.41,-1.21 2.26,-1.6 0.88,-0.4 1.82,-0.61 2.79,-0.63l0 -0c0.06,-0 0.11,-0 0.17,-0 0.96,0 1.89,0.18 2.76,0.55 0.85,0.35 1.61,0.86 2.27,1.5 1.36,1.33 2.13,3.1 2.17,5 0.02,0.87 -0.31,2.01 -1,3.38 -0.47,0.95 -0.95,1.68 -1,1.75l-3.59 5.61 -0.08 0.1c-0.36,0.37 -0.86,0.59 -1.38,0.59l0 0z"/>
   <path class="fil2" d="M4.41 2.77c2.45,-1.55 5.7,-0.82 7.25,1.63 1.55,2.45 0.82,5.7 -1.63,7.25 -2.45,1.55 -5.7,0.82 -7.25,-1.63 -1.55,-2.45 -0.82,-5.7 1.63,-7.25z"/>
   <path class="fil3" d="M4.33 5.97c0.02,-0.15 0.13,-0.27 0.29,-0.27 0.07,0 0.15,0.03 0.2,0.08l0.32 0.32c0.23,0.23 0.62,0.23 0.86,0 0.23,-0.24 0.23,-0.62 0,-0.86l-0.32 -0.32c-0.08,-0.08 -0.1,-0.2 -0.07,-0.3 0.03,-0.1 0.13,-0.17 0.25,-0.18 0.47,-0.03 0.92,0.13 1.24,0.47 0.35,0.35 0.52,0.86 0.47,1.36 -0.02,0.1 0.02,0.22 0.1,0.29l2.06 2.06c0.34,0.34 0.35,0.87 0.03,1.21 -0.17,0.17 -0.39,0.27 -0.62,0.27 -0.23,0 -0.44,-0.08 -0.6,-0.25l-2.08 -2.06c-0.08,-0.08 -0.18,-0.12 -0.29,-0.1 -0.5,0.07 -1.01,-0.1 -1.36,-0.47 -0.34,-0.32 -0.5,-0.77 -0.49,-1.24z"/>
  </g>
 </g>
</svg>
