<?xml version="1.0" encoding="UTF-8"?>
<!DOCTYPE svg PUBLIC "-//W3C//DTD SVG 1.1//EN" "http://www.w3.org/Graphics/SVG/1.1/DTD/svg11.dtd">
<!-- Creator: CorelDRAW 2019 (64 Bit) -->
<svg xmlns="http://www.w3.org/2000/svg" xml:space="preserve" width="15.5071mm" height="15.5057mm" version="1.1" style="shape-rendering:geometricPrecision; text-rendering:geometricPrecision; image-rendering:optimizeQuality; fill-rule:evenodd; clip-rule:evenodd"
viewBox="0 0 14.89 14.89"
 xmlns:xlink="http://www.w3.org/1999/xlink">
 <defs>
  <style type="text/css">
   <![CDATA[
    .fil0 {fill:#9E00A4}
    .fil2 {fill:white}
    .fil1 {fill:white;fill-rule:nonzero}
    .fil3 {fill:black;fill-rule:nonzero}
   ]]>
  </style>
 </defs>
 <g id="Camada_x0020_1">
  <metadata id="CorelCorpID_0Corel-Layer"/>
  <path class="fil0" d="M3.83 1.73c3.16,-2 7.34,-1.06 9.34,2.1 2,3.16 1.06,7.34 -2.1,9.34 -3.16,2 -7.34,1.06 -9.34,-2.1 -2,-3.16 -1.06,-7.34 2.1,-9.34z"/>
  <path class="fil1" d="M7.44 0.68c-1.24,0 -2.49,0.34 -3.61,1.05 -3.16,2 -4.1,6.18 -2.1,9.34 1.29,2.04 3.48,3.15 5.73,3.15 1.24,0 2.49,-0.34 3.61,-1.05 3.16,-2 4.1,-6.18 2.1,-9.34 -1.29,-2.04 -3.48,-3.15 -5.73,-3.15zm0 -0.68c1.23,0 2.46,0.31 3.54,0.89 1.12,0.6 2.07,1.49 2.76,2.57 0.54,0.85 0.89,1.78 1.05,2.76 0.16,0.95 0.13,1.91 -0.08,2.85 -0.21,0.94 -0.6,1.82 -1.15,2.61 -0.57,0.82 -1.29,1.51 -2.14,2.04 -1.19,0.76 -2.57,1.15 -3.98,1.15 -1.23,0 -2.46,-0.31 -3.54,-0.89 -1.12,-0.6 -2.07,-1.49 -2.76,-2.57 -0.54,-0.85 -0.89,-1.78 -1.05,-2.76 -0.16,-0.95 -0.13,-1.91 0.08,-2.85 0.21,-0.94 0.6,-1.82 1.15,-2.61 0.57,-0.82 1.29,-1.51 2.14,-2.04 1.19,-0.76 2.57,-1.15 3.98,-1.15z"/>
  <path class="fil2" d="M4.5 2.82c2.53,-1.6 5.88,-0.85 7.49,1.68 1.6,2.53 0.85,5.88 -1.68,7.49 -2.53,1.6 -5.88,0.85 -7.49,-1.68 -1.6,-2.53 -0.85,-5.88 1.68,-7.49z"/>
  <path class="fil3" d="M5.56 4.64c0.6,0 1.1,0.32 1.44,0.76 0.35,-0.44 0.84,-0.76 1.44,-0.76 0.84,0 1.54,0.55 1.79,1.3l-0.38 0.58c0,-0.66 -0.45,-1.18 -1.06,-1.33 -0.09,-0.03 -0.25,-0.06 -0.35,-0.06 -0.54,0 -0.99,0.29 -1.23,0.73l-0.21 0.39 -0.21 -0.39c-0.24,-0.44 -0.69,-0.73 -1.23,-0.73 -0.78,0 -1.42,0.62 -1.41,1.4 0.01,0.59 0.53,1.35 1.18,2 0.09,0.09 0.18,0.16 0.27,0.24 0.52,0.48 1.03,0.89 1.4,1.15 0.3,-0.22 0.7,-0.52 1.12,-0.88 0.19,-0.16 0.38,-0.33 0.56,-0.52 0.12,-0.12 0.23,-0.24 0.33,-0.36l0.03 0.06 0.18 0.42c-0.07,0.07 -0.13,0.14 -0.2,0.21 -0.69,0.69 -1.48,1.28 -1.9,1.58l-0.14 0.09 -0.14 -0.09c-0.41,-0.3 -1.2,-0.89 -1.88,-1.58 -0.68,-0.69 -1.31,-1.49 -1.32,-2.34 -0.02,-1.05 0.85,-1.88 1.9,-1.88zm3.2 1.09l0.76 1.79 0.65 -1.03 0.47 1.55 0.56 0 0 0.49 -0.93 0 -0.26 -0.86 -0.58 0.91 -0.68 -1.61 -0.68 1.59 -0.5 -0.76 -0.38 0.73 -1.11 0 0 -0.49 0.82 0 0.61 -1.2 0.46 0.7 0.79 -1.81z"/>
 </g>
</svg>
