<?xml version="1.0" encoding="UTF-8"?>
<!DOCTYPE svg PUBLIC "-//W3C//DTD SVG 1.1//EN" "http://www.w3.org/Graphics/SVG/1.1/DTD/svg11.dtd">
<!-- Creator: CorelDRAW 2019 (64 Bit) -->
<svg xmlns="http://www.w3.org/2000/svg" xml:space="preserve" width="15.5115mm" height="19.8595mm" version="1.1" style="shape-rendering:geometricPrecision; text-rendering:geometricPrecision; image-rendering:optimizeQuality; fill-rule:evenodd; clip-rule:evenodd"
viewBox="0 0 14.43 18.47"
 xmlns:xlink="http://www.w3.org/1999/xlink">
 <defs>
  <style type="text/css">
   <![CDATA[
    .fil2 {fill:white}
    .fil0 {fill:#9E00A4;fill-rule:nonzero}
    .fil1 {fill:white;fill-rule:nonzero}
    .fil3 {fill:black;fill-rule:nonzero}
   ]]>
  </style>
 </defs>
 <g id="Camada_x0020_1">
  <metadata id="CorelCorpID_0Corel-Layer"/>
  <g id="_2463703689104">
   <path class="fil0" d="M6.52 17.47l-3.78 -5.47 0 0c0,0 -2.04,-2.81 -2.08,-4.64 -0.08,-3.62 2.79,-6.62 6.41,-6.71l0 -0c3.62,-0.08 6.62,2.79 6.71,6.41 0.04,1.85 -1.89,4.75 -1.89,4.75l-3.59 5.62c-0.25,0.26 -0.58,0.38 -0.91,0.38 -0.31,0 -0.63,-0.11 -0.87,-0.34z"/>
   <path class="fil1" d="M7.39 17.82c0.33,-0 0.66,-0.13 0.91,-0.38l3.59 -5.62c0,0 1.93,-2.91 1.89,-4.75 -0.08,-3.57 -3,-6.41 -6.55,-6.41 -0.05,0 -0.1,0 -0.15,0l-0 0c-3.62,0.08 -6.49,3.09 -6.41,6.71 0.04,1.84 2.08,4.64 2.08,4.64l-0 -0 3.78 5.47c0.24,0.23 0.56,0.34 0.87,0.34zm0 0.66c0,0 0,0 0,0 -0.49,0 -0.96,-0.19 -1.32,-0.52l-0.09 -0.1 -3.78 -5.47 0 -0c-0.09,-0.12 -0.57,-0.8 -1.06,-1.68 -0.74,-1.33 -1.12,-2.44 -1.14,-3.31 -0.02,-0.97 0.15,-1.92 0.5,-2.82 0.34,-0.87 0.85,-1.65 1.49,-2.33 0.65,-0.68 1.41,-1.21 2.26,-1.6 0.88,-0.4 1.82,-0.61 2.79,-0.63l0 -0c0.06,-0 0.11,-0 0.17,-0 0.96,0 1.89,0.18 2.76,0.55 0.85,0.35 1.61,0.86 2.27,1.5 1.36,1.33 2.13,3.1 2.17,5 0.02,0.87 -0.31,2.01 -1,3.38 -0.47,0.95 -0.95,1.68 -1,1.75l-3.59 5.61 -0.08 0.1c-0.36,0.37 -0.86,0.59 -1.38,0.59l0 0z"/>
   <path class="fil2" d="M4.41 2.77c2.45,-1.55 5.7,-0.82 7.25,1.63 1.55,2.45 0.82,5.7 -1.63,7.25 -2.45,1.55 -5.7,0.82 -7.25,-1.63 -1.55,-2.45 -0.82,-5.7 1.63,-7.25z"/>
   <path class="fil3" d="M5.53 4.61c0.58,0 1.06,0.31 1.4,0.73 0.33,-0.43 0.81,-0.73 1.4,-0.73 0.81,0 1.49,0.53 1.73,1.26l-0.37 0.56c0,-0.64 -0.44,-1.14 -1.03,-1.29 -0.08,-0.02 -0.24,-0.06 -0.34,-0.06 -0.52,0 -0.96,0.28 -1.19,0.71l-0.21 0.38 -0.21 -0.38c-0.23,-0.43 -0.67,-0.71 -1.19,-0.71 -0.76,0 -1.38,0.6 -1.37,1.35 0.01,0.57 0.52,1.31 1.15,1.94 0.09,0.09 0.18,0.15 0.26,0.24 0.5,0.47 1,0.86 1.35,1.12 0.29,-0.21 0.68,-0.5 1.09,-0.85 0.18,-0.16 0.36,-0.32 0.54,-0.5 0.12,-0.12 0.22,-0.23 0.32,-0.35l0.03 0.06 0.18 0.41c-0.06,0.07 -0.12,0.14 -0.19,0.21 -0.67,0.67 -1.44,1.24 -1.84,1.53l-0.13 0.09 -0.13 -0.09c-0.4,-0.29 -1.16,-0.86 -1.82,-1.53 -0.66,-0.66 -1.26,-1.45 -1.28,-2.26 -0.02,-1.01 0.83,-1.82 1.84,-1.82zm3.1 1.06l0.73 1.73 0.63 -1 0.46 1.5 0.54 0 0 0.47 -0.9 0 -0.25 -0.84 -0.56 0.88 -0.66 -1.56 -0.66 1.54 -0.48 -0.73 -0.37 0.71 -1.07 0 0 -0.47 0.79 0 0.59 -1.16 0.44 0.68 0.76 -1.75z"/>
  </g>
 </g>
</svg>
