<?xml version="1.0" encoding="UTF-8"?>
<!DOCTYPE svg PUBLIC "-//W3C//DTD SVG 1.1//EN" "http://www.w3.org/Graphics/SVG/1.1/DTD/svg11.dtd">
<!-- Creator: CorelDRAW 2019 (64 Bit) -->
<svg xmlns="http://www.w3.org/2000/svg" xml:space="preserve" width="15.5071mm" height="15.5057mm" version="1.1" style="shape-rendering:geometricPrecision; text-rendering:geometricPrecision; image-rendering:optimizeQuality; fill-rule:evenodd; clip-rule:evenodd"
viewBox="0 0 14.89 14.89"
 xmlns:xlink="http://www.w3.org/1999/xlink">
 <defs>
  <style type="text/css">
   <![CDATA[
    .fil0 {fill:#CF7500}
    .fil2 {fill:white}
    .fil1 {fill:white;fill-rule:nonzero}
    .fil3 {fill:black;fill-rule:nonzero}
   ]]>
  </style>
 </defs>
 <g id="Camada_x0020_1">
  <metadata id="CorelCorpID_0Corel-Layer"/>
  <g id="_2465092244000">
   <path class="fil0" d="M3.83 1.73c3.16,-2 7.34,-1.06 9.34,2.1 2,3.16 1.06,7.34 -2.1,9.34 -3.16,2 -7.34,1.06 -9.34,-2.1 -2,-3.16 -1.06,-7.34 2.1,-9.34z"/>
   <path class="fil1" d="M7.44 0.68c-1.24,0 -2.49,0.34 -3.61,1.05 -3.16,2 -4.1,6.18 -2.1,9.34 1.29,2.04 3.48,3.15 5.73,3.15 1.24,0 2.49,-0.34 3.61,-1.05 3.16,-2 4.1,-6.18 2.1,-9.34 -1.29,-2.04 -3.48,-3.15 -5.73,-3.15zm0 -0.68c1.23,0 2.46,0.31 3.54,0.89 1.12,0.6 2.07,1.49 2.76,2.57 0.54,0.85 0.89,1.78 1.05,2.76 0.16,0.95 0.13,1.91 -0.08,2.85 -0.21,0.94 -0.6,1.82 -1.15,2.61 -0.57,0.82 -1.29,1.51 -2.14,2.04 -1.19,0.76 -2.57,1.15 -3.98,1.15 -1.23,0 -2.46,-0.31 -3.54,-0.89 -1.12,-0.6 -2.07,-1.49 -2.76,-2.57 -0.54,-0.85 -0.89,-1.78 -1.05,-2.76 -0.16,-0.95 -0.13,-1.91 0.08,-2.85 0.21,-0.94 0.6,-1.82 1.15,-2.61 0.57,-0.82 1.29,-1.51 2.14,-2.04 1.19,-0.76 2.57,-1.15 3.98,-1.15z"/>
   <path class="fil2" d="M4.55 2.82c2.53,-1.6 5.88,-0.85 7.49,1.68 1.6,2.53 0.85,5.88 -1.68,7.49 -2.53,1.6 -5.88,0.85 -7.49,-1.68 -1.6,-2.53 -0.85,-5.88 1.68,-7.49z"/>
   <path class="fil3" d="M9.95 6.24l-0.92 0 0 -1.22 -4.27 0c-0.34,0 -0.61,0.27 -0.61,0.61l0 3.36 0.61 0c0,0.51 0.41,0.92 0.92,0.92 0.51,0 0.92,-0.41 0.92,-0.92l1.83 0c0,0.51 0.41,0.92 0.92,0.92 0.51,0 0.92,-0.41 0.92,-0.92l0.61 0 0 -1.53 -0.92 -1.22zm-4.27 3.21c-0.25,0 -0.46,-0.2 -0.46,-0.46 0,-0.25 0.2,-0.46 0.46,-0.46 0.25,0 0.46,0.2 0.46,0.46 0,0.25 -0.2,0.46 -0.46,0.46zm4.12 -2.75l0.6 0.76 -1.36 0 0 -0.76 0.76 0zm-0.46 2.75c-0.25,0 -0.46,-0.2 -0.46,-0.46 0,-0.25 0.2,-0.46 0.46,-0.46 0.25,0 0.46,0.2 0.46,0.46 0,0.25 -0.2,0.46 -0.46,0.46z"/>
  </g>
 </g>
</svg>
