<?xml version="1.0" encoding="UTF-8"?>
<!DOCTYPE svg PUBLIC "-//W3C//DTD SVG 1.1//EN" "http://www.w3.org/Graphics/SVG/1.1/DTD/svg11.dtd">
<!-- Creator: CorelDRAW 2019 (64 Bit) -->
<svg xmlns="http://www.w3.org/2000/svg" xml:space="preserve" width="15.5115mm" height="19.8595mm" version="1.1" style="shape-rendering:geometricPrecision; text-rendering:geometricPrecision; image-rendering:optimizeQuality; fill-rule:evenodd; clip-rule:evenodd"
viewBox="0 0 14.43 18.47"
 xmlns:xlink="http://www.w3.org/1999/xlink">
 <defs>
  <style type="text/css">
   <![CDATA[
    .fil2 {fill:white}
    .fil0 {fill:#CF7500;fill-rule:nonzero}
    .fil1 {fill:white;fill-rule:nonzero}
    .fil3 {fill:black;fill-rule:nonzero}
   ]]>
  </style>
 </defs>
 <g id="Camada_x0020_1">
  <metadata id="CorelCorpID_0Corel-Layer"/>
  <g id="_2465091314352">
   <path class="fil0" d="M6.52 17.47l-3.78 -5.47 0 0c0,0 -2.04,-2.81 -2.08,-4.64 -0.08,-3.62 2.79,-6.62 6.41,-6.71l0 -0c3.62,-0.08 6.62,2.79 6.71,6.41 0.04,1.85 -1.89,4.75 -1.89,4.75l-3.59 5.62c-0.25,0.26 -0.58,0.38 -0.91,0.38 -0.31,0 -0.63,-0.11 -0.87,-0.34z"/>
   <path class="fil1" d="M7.39 17.82c0.33,0 0.66,-0.13 0.91,-0.38l3.59 -5.62c0,0 1.93,-2.91 1.89,-4.75 -0.08,-3.57 -3,-6.41 -6.55,-6.41 -0.05,0 -0.1,0 -0.15,0l-0 0c-3.62,0.08 -6.49,3.09 -6.41,6.71 0.04,1.84 2.08,4.64 2.08,4.64l-0 -0 3.78 5.47c0.24,0.23 0.56,0.34 0.87,0.34zm0 0.66c0,0 0,0 0,0 -0.49,0 -0.96,-0.19 -1.32,-0.52l-0.09 -0.1 -3.78 -5.47 0 -0c-0.09,-0.12 -0.57,-0.8 -1.06,-1.68 -0.74,-1.33 -1.12,-2.44 -1.14,-3.31 -0.02,-0.97 0.15,-1.92 0.5,-2.82 0.34,-0.87 0.85,-1.65 1.49,-2.33 0.65,-0.68 1.41,-1.21 2.26,-1.6 0.88,-0.4 1.82,-0.61 2.79,-0.63l0 -0c0.06,-0 0.11,-0 0.17,-0 0.96,0 1.89,0.18 2.76,0.55 0.85,0.35 1.61,0.86 2.27,1.5 1.36,1.33 2.13,3.1 2.17,5 0.02,0.87 -0.31,2.01 -1,3.38 -0.47,0.95 -0.95,1.68 -1,1.75l-3.59 5.61 -0.08 0.1c-0.36,0.37 -0.86,0.59 -1.38,0.59l0 0z"/>
   <path class="fil2" d="M4.41 2.77c2.45,-1.55 5.7,-0.82 7.25,1.63 1.55,2.45 0.82,5.7 -1.63,7.25 -2.45,1.55 -5.7,0.82 -7.25,-1.63 -1.55,-2.45 -0.82,-5.7 1.63,-7.25z"/>
   <path class="fil3" d="M9.67 6.09l-0.89 0 0 -1.18 -4.14 0c-0.33,0 -0.59,0.26 -0.59,0.59l0 3.25 0.59 0c0,0.49 0.4,0.89 0.89,0.89 0.49,0 0.89,-0.4 0.89,-0.89l1.77 0c0,0.49 0.4,0.89 0.89,0.89 0.49,0 0.89,-0.4 0.89,-0.89l0.59 0 0 -1.48 -0.89 -1.18zm-4.14 3.1c-0.25,0 -0.44,-0.2 -0.44,-0.44 0,-0.25 0.2,-0.44 0.44,-0.44 0.25,0 0.44,0.2 0.44,0.44 0,0.25 -0.2,0.44 -0.44,0.44zm3.99 -2.66l0.58 0.74 -1.32 0 0 -0.74 0.74 0zm-0.44 2.66c-0.25,0 -0.44,-0.2 -0.44,-0.44 0,-0.25 0.2,-0.44 0.44,-0.44 0.25,0 0.44,0.2 0.44,0.44 0,0.25 -0.2,0.44 -0.44,0.44z"/>
  </g>
 </g>
</svg>
