<?xml version="1.0" encoding="UTF-8"?>
<!DOCTYPE svg PUBLIC "-//W3C//DTD SVG 1.1//EN" "http://www.w3.org/Graphics/SVG/1.1/DTD/svg11.dtd">
<!-- Creator: CorelDRAW 2019 (64 Bit) -->
<svg xmlns="http://www.w3.org/2000/svg" xml:space="preserve" width="15.5071mm" height="15.5058mm" version="1.1" style="shape-rendering:geometricPrecision; text-rendering:geometricPrecision; image-rendering:optimizeQuality; fill-rule:evenodd; clip-rule:evenodd"
viewBox="0 0 14.89 14.89"
 xmlns:xlink="http://www.w3.org/1999/xlink">
 <defs>
  <style type="text/css">
   <![CDATA[
    .fil0 {fill:#003194}
    .fil2 {fill:white}
    .fil3 {fill:#010101;fill-rule:nonzero}
    .fil1 {fill:white;fill-rule:nonzero}
   ]]>
  </style>
 </defs>
 <g id="Camada_x0020_1">
  <metadata id="CorelCorpID_0Corel-Layer"/>
  <path class="fil0" d="M3.83 1.73c3.16,-2 7.34,-1.06 9.34,2.1 2,3.16 1.06,7.34 -2.1,9.34 -3.16,2 -7.34,1.06 -9.34,-2.1 -2,-3.16 -1.06,-7.34 2.1,-9.34z"/>
  <path class="fil1" d="M7.44 0.68c-1.24,0 -2.49,0.34 -3.61,1.05 -3.16,2 -4.1,6.18 -2.1,9.34 1.29,2.04 3.48,3.15 5.73,3.15 1.24,0 2.49,-0.34 3.61,-1.05 3.16,-2 4.1,-6.18 2.1,-9.34 -1.29,-2.04 -3.48,-3.15 -5.73,-3.15zm0 -0.68c1.23,0 2.46,0.31 3.54,0.89 1.12,0.6 2.07,1.49 2.76,2.57 0.54,0.85 0.89,1.78 1.05,2.76 0.16,0.95 0.13,1.91 -0.08,2.85 -0.21,0.94 -0.6,1.82 -1.15,2.61 -0.57,0.82 -1.29,1.51 -2.14,2.04 -1.19,0.76 -2.57,1.15 -3.98,1.15 -1.23,0 -2.46,-0.31 -3.54,-0.89 -1.12,-0.6 -2.07,-1.49 -2.76,-2.57 -0.54,-0.85 -0.89,-1.78 -1.05,-2.76 -0.16,-0.95 -0.13,-1.91 0.08,-2.85 0.21,-0.94 0.6,-1.82 1.15,-2.61 0.57,-0.82 1.29,-1.51 2.14,-2.04 1.19,-0.76 2.57,-1.15 3.98,-1.15z"/>
  <path class="fil2" d="M4.5 2.82c2.53,-1.6 5.88,-0.85 7.49,1.68 1.6,2.53 0.85,5.88 -1.68,7.49 -2.53,1.6 -5.88,0.85 -7.49,-1.68 -1.6,-2.53 -0.85,-5.88 1.68,-7.49z"/>
  <path class="fil3" d="M4.58 6.05c0.02,-0.16 0.14,-0.28 0.29,-0.28 0.07,0 0.16,0.03 0.21,0.09l0.33 0.33c0.24,0.24 0.64,0.24 0.88,0 0.24,-0.24 0.24,-0.64 0,-0.88l-0.33 -0.33c-0.09,-0.09 -0.1,-0.21 -0.07,-0.31 0.03,-0.1 0.14,-0.17 0.26,-0.19 0.49,-0.03 0.95,0.14 1.28,0.49 0.36,0.36 0.54,0.88 0.49,1.4 -0.02,0.1 0.02,0.23 0.1,0.29l2.13 2.13c0.35,0.35 0.36,0.9 0.03,1.25 -0.17,0.17 -0.4,0.28 -0.64,0.28 -0.24,0 -0.45,-0.09 -0.62,-0.26l-2.15 -2.13c-0.09,-0.09 -0.19,-0.12 -0.29,-0.1 -0.52,0.07 -1.04,-0.1 -1.4,-0.49 -0.35,-0.33 -0.52,-0.8 -0.5,-1.28z"/>
 </g>
</svg>
